<?xml version="1.0" encoding="us-ascii" standalone="no"?><svg xmlns="http://www.w3.org/2000/svg" xmlns:xlink="http://www.w3.org/1999/xlink" contentStyleType="text/css" height="498px" preserveAspectRatio="none" style="width:352px;height:498px;background:#FFFFFF;" version="1.1" viewBox="0 0 352 498" width="352px" zoomAndPan="magnify"><defs/><g><text fill="#000000" font-family="Verdana" font-size="22" font-weight="bold" lengthAdjust="spacing" textLength="191" x="83" y="37.1182">Agent &#35843;&#35797;&#30340;&#25361;&#25112;</text><line style="stroke:#000000;stroke-width:1.0;" x1="41" x2="41" y1="84.752" y2="462.1431"/><line style="stroke:#000000;stroke-width:1.0;" x1="164" x2="164" y1="84.752" y2="462.1431"/><line style="stroke:#000000;stroke-width:1.0;" x1="243" x2="243" y1="84.752" y2="462.1431"/><line style="stroke:#000000;stroke-width:1.0;" x1="316" x2="316" y1="84.752" y2="462.1431"/><rect fill="#FFFFFF" height="31.0146" rx="2.5" ry="2.5" style="stroke:#000000;stroke-width:1.0;" width="42" x="20" y="52.7373"/><text fill="#000000" font-family="Verdana" font-size="14" lengthAdjust="spacing" textLength="28" x="27" y="73.8125">&#29992;&#25143;</text><rect fill="#FFFFFF" height="31.0146" rx="2.5" ry="2.5" style="stroke:#000000;stroke-width:1.0;" width="42" x="20" y="461.1431"/><text fill="#000000" font-family="Verdana" font-size="14" lengthAdjust="spacing" textLength="28" x="27" y="482.2183">&#29992;&#25143;</text><rect fill="#FFFFFF" height="31.0146" rx="2.5" ry="2.5" style="stroke:#000000;stroke-width:1.0;" width="56" x="136" y="52.7373"/><text fill="#000000" font-family="Verdana" font-size="14" lengthAdjust="spacing" textLength="42" x="143" y="73.8125">Agent</text><rect fill="#FFFFFF" height="31.0146" rx="2.5" ry="2.5" style="stroke:#000000;stroke-width:1.0;" width="56" x="136" y="461.1431"/><text fill="#000000" font-family="Verdana" font-size="14" lengthAdjust="spacing" textLength="42" x="143" y="482.2183">Agent</text><rect fill="#FFFFFF" height="31.0146" rx="2.5" ry="2.5" style="stroke:#000000;stroke-width:1.0;" width="42" x="222" y="52.7373"/><text fill="#000000" font-family="Verdana" font-size="14" lengthAdjust="spacing" textLength="28" x="229" y="73.8125">&#27169;&#22411;</text><rect fill="#FFFFFF" height="31.0146" rx="2.5" ry="2.5" style="stroke:#000000;stroke-width:1.0;" width="42" x="222" y="461.1431"/><text fill="#000000" font-family="Verdana" font-size="14" lengthAdjust="spacing" textLength="28" x="229" y="482.2183">&#27169;&#22411;</text><rect fill="#FFFFFF" height="31.0146" rx="2.5" ry="2.5" style="stroke:#000000;stroke-width:1.0;" width="44" x="294" y="52.7373"/><text fill="#000000" font-family="Verdana" font-size="14" lengthAdjust="spacing" textLength="30" x="301" y="73.8125">Tool</text><rect fill="#FFFFFF" height="31.0146" rx="2.5" ry="2.5" style="stroke:#000000;stroke-width:1.0;" width="44" x="294" y="461.1431"/><text fill="#000000" font-family="Verdana" font-size="14" lengthAdjust="spacing" textLength="30" x="301" y="482.2183">Tool</text><polygon fill="#000000" points="152,112.5513,162,116.5513,152,120.5513,156,116.5513" style="stroke:#000000;stroke-width:1.0;"/><line style="stroke:#000000;stroke-width:1.0;" x1="41" x2="158" y1="116.5513" y2="116.5513"/><text fill="#000000" font-family="Verdana" font-size="13" lengthAdjust="spacing" textLength="99" x="48" y="111.8218">&#36755;&#20837;: "&#22270;&#20687;&#22826;&#26263;"</text><polygon fill="#000000" points="231,142.3506,241,146.3506,231,150.3506,235,146.3506" style="stroke:#000000;stroke-width:1.0;"/><line style="stroke:#000000;stroke-width:1.0;" x1="164" x2="237" y1="146.3506" y2="146.3506"/><text fill="#000000" font-family="Verdana" font-size="13" lengthAdjust="spacing" textLength="26" x="171" y="141.6211">&#35831;&#27714;</text><polygon fill="#000000" points="175,172.1499,165,176.1499,175,180.1499,171,176.1499" style="stroke:#000000;stroke-width:1.0;"/><line style="stroke:#000000;stroke-width:1.0;" x1="169" x2="242" y1="176.1499" y2="176.1499"/><text fill="#000000" font-family="Verdana" font-size="13" lengthAdjust="spacing" textLength="55" x="181" y="171.4204">tool_call</text><polygon fill="#000000" points="304,201.9492,314,205.9492,304,209.9492,308,205.9492" style="stroke:#000000;stroke-width:1.0;"/><line style="stroke:#000000;stroke-width:1.0;" x1="164" x2="310" y1="205.9492" y2="205.9492"/><text fill="#000000" font-family="Verdana" font-size="13" lengthAdjust="spacing" textLength="26" x="171" y="201.2197">&#35843;&#29992;</text><polygon fill="#000000" points="175,231.7485,165,235.7485,175,239.7485,171,235.7485" style="stroke:#000000;stroke-width:1.0;"/><line style="stroke:#000000;stroke-width:1.0;" x1="169" x2="315" y1="235.7485" y2="235.7485"/><text fill="#000000" font-family="Verdana" font-size="13" lengthAdjust="spacing" textLength="26" x="181" y="231.019">&#32467;&#26524;</text><polygon fill="#000000" points="231,261.5479,241,265.5479,231,269.5479,235,265.5479" style="stroke:#000000;stroke-width:1.0;"/><line style="stroke:#000000;stroke-width:1.0;" x1="164" x2="237" y1="265.5479" y2="265.5479"/><text fill="#000000" font-family="Verdana" font-size="13" lengthAdjust="spacing" textLength="52" x="171" y="260.8184">&#20877;&#27425;&#35831;&#27714;</text><polygon fill="#000000" points="175,291.3472,165,295.3472,175,299.3472,171,295.3472" style="stroke:#000000;stroke-width:1.0;"/><line style="stroke:#000000;stroke-width:1.0;" x1="169" x2="242" y1="295.3472" y2="295.3472"/><text fill="#000000" font-family="Verdana" font-size="13" lengthAdjust="spacing" textLength="52" x="181" y="290.6177">&#26368;&#32456;&#31572;&#26696;</text><polygon fill="#000000" points="52,321.1465,42,325.1465,52,329.1465,48,325.1465" style="stroke:#000000;stroke-width:1.0;"/><line style="stroke:#000000;stroke-width:1.0;" x1="46" x2="163" y1="325.1465" y2="325.1465"/><text fill="#000000" font-family="Verdana" font-size="13" lengthAdjust="spacing" textLength="52" x="58" y="320.417">&#25191;&#34892;&#32467;&#26524;</text><path d="M169,338.1465 L169,379.1465 L281,379.1465 L281,348.1465 L271,338.1465 L169,338.1465 " fill="#FFFFFF" style="stroke:#000000;stroke-width:1.0;"/><path d="M271,338.1465 L271,348.1465 L281,348.1465 L271,338.1465 " fill="#FFFFFF" style="stroke:#000000;stroke-width:1.0;"/><text fill="#000000" font-family="Verdana" font-size="13" lengthAdjust="spacing" textLength="91" x="175" y="356.2163">&#20869;&#37096;&#29366;&#24577;&#19981;&#21487;&#35265;</text><text fill="#000000" font-family="Verdana" font-size="13" lengthAdjust="spacing" textLength="52" x="175" y="372.0156">&#40657;&#30418;&#20915;&#31574;</text><path d="M12,389.7451 L12,446.7451 L345,446.7451 L345,399.7451 L335,389.7451 L12,389.7451 " fill="#FFFFFF" style="stroke:#000000;stroke-width:1.0;"/><path d="M335,389.7451 L335,399.7451 L345,399.7451 L335,389.7451 " fill="#FFFFFF" style="stroke:#000000;stroke-width:1.0;"/><text fill="#000000" font-family="Verdana" font-size="13" lengthAdjust="spacing" textLength="39" x="96" y="407.8149">&#38382;&#39064;&#65306;</text><text fill="#000000" font-family="Verdana" font-size="13" lengthAdjust="spacing" textLength="91" x="96" y="423.6143">&#20013;&#38388;&#36807;&#31243;&#19981;&#21487;&#35265;</text><text fill="#000000" font-family="Verdana" font-size="13" lengthAdjust="spacing" textLength="156" x="96" y="439.4136">&#20986;&#38169;&#20102;&#19981;&#30693;&#36947;&#21738;&#19968;&#27493;&#26377;&#38382;&#39064;</text><!--SRC=[NOz1Ji9058RtSugnQxq02vCUW5sxDesEqAIs12UkmGeKWH0i2WB1r4XeY1MCHWWOl4ndfbrv1QUjgBYR_D__ldbl1sVH2O8vJL5rW5Mi8IXca8vXC3E3wJNhNT1wYrfT079A7gk7QaxXK61jbrfp0IgdKDucyNGCn6r0NOSCQp59RnF9CBGubm2GuTu-564A1ckRb4OfA93-cfXDyZ2XlOu0n8Yd8pwTq-TpaDxqCPSS72gQbbIag38p-Pv0sbJOogR3mQ-2b1lqqValeeC2MrdCQrF7Ihfob5R7WLF_DW3Tm0ZcrKmMG-EO7mgvgnIQBhjyeuMYlsYGvZGO5taUhbgiVqNAByox0KW_Wj5eCc-SeJoKT_dLlDPv2k-xd-yz_lONNjXv3JugpAtzLP7ACcpV-iio3zdTA2pQn9xuYmBrHdHGJGm_Ntm1]--></g></svg>