<?xml version="1.0" encoding="us-ascii" standalone="no"?><svg xmlns="http://www.w3.org/2000/svg" xmlns:xlink="http://www.w3.org/1999/xlink" contentStyleType="text/css" height="553px" preserveAspectRatio="none" style="width:637px;height:553px;background:#FFFFFF;" version="1.1" viewBox="0 0 637 553" width="637px" zoomAndPan="magnify"><defs/><g><text fill="#000000" font-family="Verdana" font-size="22" font-weight="bold" lengthAdjust="spacing" textLength="92" x="268" y="35.4209">&#38598;&#25104;&#26550;&#26500;</text><g id="cluster_Qt &#24212;&#29992;"><rect fill="#FFFFFF" height="97" rx="2.5" ry="2.5" style="stroke:#000000;stroke-width:1.0;" width="521" x="110" y="450.6094"/><text fill="#000000" font-family="Verdana" font-size="14" font-weight="bold" lengthAdjust="spacing" textLength="53" x="344" y="465.6045">Qt &#24212;&#29992;</text></g><g id="cluster_agent4cpp"><rect fill="#FFFFFF" height="343" rx="2.5" ry="2.5" style="stroke:#000000;stroke-width:1.0;" width="427" x="12" y="58.6094"/><text fill="#000000" font-family="Verdana" font-size="14" font-weight="bold" lengthAdjust="spacing" textLength="84" x="183.5" y="73.6045">agent4cpp</text></g><g id="elem_LogTools"><rect fill="#FFFFFF" height="46.2969" rx="2.5" ry="2.5" style="stroke:#000000;stroke-width:1.0;" width="103" x="511.5" y="485.6094"/><rect fill="#FFFFFF" height="10" style="stroke:#000000;stroke-width:1.0;" width="15" x="594.5" y="490.6094"/><rect fill="#FFFFFF" height="2" style="stroke:#000000;stroke-width:1.0;" width="4" x="592.5" y="492.6094"/><rect fill="#FFFFFF" height="2" style="stroke:#000000;stroke-width:1.0;" width="4" x="592.5" y="496.6094"/><text fill="#000000" font-family="Verdana" font-size="14" lengthAdjust="spacing" textLength="63" x="526.5" y="518.6045">LogTools</text></g><g id="elem_LogDocument"><rect fill="#FFFFFF" height="46.2969" rx="2.5" ry="2.5" style="stroke:#000000;stroke-width:1.0;" width="138" x="338" y="485.6094"/><rect fill="#FFFFFF" height="10" style="stroke:#000000;stroke-width:1.0;" width="15" x="456" y="490.6094"/><rect fill="#FFFFFF" height="2" style="stroke:#000000;stroke-width:1.0;" width="4" x="454" y="492.6094"/><rect fill="#FFFFFF" height="2" style="stroke:#000000;stroke-width:1.0;" width="4" x="454" y="496.6094"/><text fill="#000000" font-family="Verdana" font-size="14" lengthAdjust="spacing" textLength="98" x="353" y="518.6045">LogDocument</text></g><g id="elem_LogAnalyzerWindow"><rect fill="#FFFFFF" height="46.2969" rx="2.5" ry="2.5" style="stroke:#000000;stroke-width:1.0;" width="177" x="125.5" y="485.6094"/><rect fill="#FFFFFF" height="10" style="stroke:#000000;stroke-width:1.0;" width="15" x="282.5" y="490.6094"/><rect fill="#FFFFFF" height="2" style="stroke:#000000;stroke-width:1.0;" width="4" x="280.5" y="492.6094"/><rect fill="#FFFFFF" height="2" style="stroke:#000000;stroke-width:1.0;" width="4" x="280.5" y="496.6094"/><text fill="#000000" font-family="Verdana" font-size="14" lengthAdjust="spacing" textLength="137" x="140.5" y="518.6045">LogAnalyzerWindow</text></g><g id="elem_TR"><rect fill="#FFFFFF" height="46.2969" rx="2.5" ry="2.5" style="stroke:#000000;stroke-width:1.0;" width="126" x="289" y="93.6094"/><rect fill="#FFFFFF" height="10" style="stroke:#000000;stroke-width:1.0;" width="15" x="395" y="98.6094"/><rect fill="#FFFFFF" height="2" style="stroke:#000000;stroke-width:1.0;" width="4" x="393" y="100.6094"/><rect fill="#FFFFFF" height="2" style="stroke:#000000;stroke-width:1.0;" width="4" x="393" y="104.6094"/><text fill="#000000" font-family="Verdana" font-size="14" lengthAdjust="spacing" textLength="86" x="304" y="126.6045">ToolRegistry</text></g><g id="elem_A"><rect fill="#FFFFFF" height="46.2969" rx="2.5" ry="2.5" style="stroke:#000000;stroke-width:1.0;" width="81" x="289.5" y="216.6094"/><rect fill="#FFFFFF" height="10" style="stroke:#000000;stroke-width:1.0;" width="15" x="350.5" y="221.6094"/><rect fill="#FFFFFF" height="2" style="stroke:#000000;stroke-width:1.0;" width="4" x="348.5" y="223.6094"/><rect fill="#FFFFFF" height="2" style="stroke:#000000;stroke-width:1.0;" width="4" x="348.5" y="227.6094"/><text fill="#000000" font-family="Verdana" font-size="14" lengthAdjust="spacing" textLength="41" x="304.5" y="249.6045">Agent</text></g><g id="elem_LLM"><rect fill="#FFFFFF" height="46.2969" rx="2.5" ry="2.5" style="stroke:#000000;stroke-width:1.0;" width="233" x="27.5" y="339.6094"/><rect fill="#FFFFFF" height="10" style="stroke:#000000;stroke-width:1.0;" width="15" x="240.5" y="344.6094"/><rect fill="#FFFFFF" height="2" style="stroke:#000000;stroke-width:1.0;" width="4" x="238.5" y="346.6094"/><rect fill="#FFFFFF" height="2" style="stroke:#000000;stroke-width:1.0;" width="4" x="238.5" y="350.6094"/><text fill="#000000" font-family="Verdana" font-size="14" lengthAdjust="spacing" textLength="193" x="42.5" y="372.6045">OpenAICompatibleLLMClient</text></g><g id="elem_CLI"><rect fill="#FFFFFF" height="46.2969" rx="2.5" ry="2.5" style="stroke:#000000;stroke-width:1.0;" width="127" x="295.5" y="339.6094"/><rect fill="#FFFFFF" height="10" style="stroke:#000000;stroke-width:1.0;" width="15" x="402.5" y="344.6094"/><rect fill="#FFFFFF" height="2" style="stroke:#000000;stroke-width:1.0;" width="4" x="400.5" y="346.6094"/><rect fill="#FFFFFF" height="2" style="stroke:#000000;stroke-width:1.0;" width="4" x="400.5" y="350.6094"/><text fill="#000000" font-family="Verdana" font-size="14" lengthAdjust="spacing" textLength="87" x="310.5" y="372.6045">InteractiveCli</text></g><g id="link_LogTools_TR"><path d="M555.683,485.202 C536.622,428.7934 481.546,277.7194 405,169.6094 C397.402,158.8784 391.818,152.5515 382.588,143.8805 " fill="none" id="LogTools-to-TR" style="stroke:#000000;stroke-width:1.0;"/><polygon fill="#000000" points="378.215,139.7724,382.0357,148.8499,381.8592,143.1958,387.5133,143.0193,378.215,139.7724" style="stroke:#000000;stroke-width:1.0;"/><text fill="#000000" font-family="Verdana" font-size="13" lengthAdjust="spacing" textLength="52" x="485" y="305.6763">&#27880;&#20876;&#26041;&#27861;</text></g><g id="link_TR_A"><path d="M347.965,139.8024 C343.995,161.6354 339.0432,188.8701 335.0832,210.6531 " fill="none" id="TR-to-A" style="stroke:#000000;stroke-width:1.0;"/><polygon fill="#000000" points="334.01,216.5564,339.5553,208.417,334.9043,211.637,331.6843,206.9861,334.01,216.5564" style="stroke:#000000;stroke-width:1.0;"/><text fill="#000000" font-family="Verdana" font-size="13" lengthAdjust="spacing" textLength="52" x="344" y="182.6763">&#25552;&#20379;&#24037;&#20855;</text></g><g id="link_A_LLM"><path d="M295.885,262.8024 C262.324,284.6354 216.4134,314.5016 182.9284,336.2846 " fill="none" id="A-to-LLM" style="stroke:#000000;stroke-width:1.0;"/><polygon fill="#000000" points="177.899,339.5564,187.6244,338.0016,182.0902,336.8299,183.262,331.2957,177.899,339.5564" style="stroke:#000000;stroke-width:1.0;"/><text fill="#000000" font-family="Verdana" font-size="13" lengthAdjust="spacing" textLength="52" x="250" y="305.6763">&#35843;&#29992;&#27169;&#22411;</text></g><g id="link_A_CLI"><path d="M335.319,262.8024 C340.552,284.6354 347.0955,311.9386 352.3165,333.7216 " fill="none" id="A-to-CLI" style="stroke:#000000;stroke-width:1.0;"/><polygon fill="#000000" points="353.715,339.5564,355.5071,329.8719,352.5496,334.6941,347.7274,331.7366,353.715,339.5564" style="stroke:#000000;stroke-width:1.0;"/><text fill="#000000" font-family="Verdana" font-size="13" lengthAdjust="spacing" textLength="91" x="348" y="305.6763">CLI &#35843;&#29992; Agent</text></g><g id="link_CLI_LogAnalyzerWindow"><path d="M336.662,385.7934 C309.493,412.7754 268.1473,453.8354 240.8603,480.9345 " fill="none" id="CLI-to-LogAnalyzerWindow" style="stroke:#000000;stroke-width:1.0;"/><polygon fill="#000000" points="236.603,485.1625,245.8075,481.6587,240.1507,481.6392,240.1703,475.9824,236.603,485.1625" style="stroke:#000000;stroke-width:1.0;"/><text fill="#000000" font-family="Verdana" font-size="13" lengthAdjust="spacing" textLength="52" x="305" y="430.6763">&#24377;&#20986;&#31383;&#21475;</text></g></g></svg>