<?xml version="1.0" encoding="us-ascii" standalone="no"?><svg xmlns="http://www.w3.org/2000/svg" xmlns:xlink="http://www.w3.org/1999/xlink" contentStyleType="text/css" height="964px" preserveAspectRatio="none" style="width:392px;height:964px;background:#FFFFFF;" version="1.1" viewBox="0 0 392 964" width="392px" zoomAndPan="magnify"><defs/><g><text fill="#000000" font-family="Verdana" font-size="22" font-weight="bold" lengthAdjust="spacing" textLength="207" x="91" y="35.4209">&#20004;&#20010;&#31034;&#20363;&#30340;&#26680;&#24515;&#21306;&#21035;</text><rect fill="#FFFFFF" height="20.9531" style="stroke:#FFFFFF;stroke-width:1.0;" width="369" x="10" y="54.3545"/><ellipse cx="103.5" cy="90.3076" fill="#FFFFFF" rx="10" ry="10" style="stroke:#000000;stroke-width:1.0;"/><rect fill="#FFFFFF" height="33.9688" rx="12.5" ry="12.5" style="stroke:#000000;stroke-width:1.0;" width="166" x="20.5" y="120.3076"/><text fill="#000000" font-family="Verdana" font-size="12" lengthAdjust="spacing" textLength="146" x="30.5" y="141.4463">&#29992;&#25143;&#36755;&#20837; "image is dark"</text><rect fill="#FFFFFF" height="47.9375" rx="12.5" ry="12.5" style="stroke:#000000;stroke-width:1.0;" width="137" x="35" y="174.2764"/><text fill="#000000" font-family="Verdana" font-size="12" lengthAdjust="spacing" textLength="60" x="45" y="195.415">&#30828;&#32534;&#30721;&#21028;&#26029;</text><text fill="#000000" font-family="Verdana" font-size="12" lengthAdjust="spacing" textLength="117" x="45" y="209.3838">if (contains "dark")</text><rect fill="#FFFFFF" height="33.9688" rx="12.5" ry="12.5" style="stroke:#000000;stroke-width:1.0;" width="168" x="19.5" y="242.2139"/><text fill="#000000" font-family="Verdana" font-size="12" lengthAdjust="spacing" textLength="148" x="29.5" y="263.3525">&#36820;&#22238; get_camera_status</text><rect fill="#FFFFFF" height="47.9375" rx="12.5" ry="12.5" style="stroke:#000000;stroke-width:1.0;" width="175" x="16" y="296.1826"/><text fill="#000000" font-family="Verdana" font-size="12" lengthAdjust="spacing" textLength="60" x="26" y="317.3213">&#30828;&#32534;&#30721;&#21028;&#26029;</text><text fill="#000000" font-family="Verdana" font-size="12" lengthAdjust="spacing" textLength="155" x="26" y="331.29">if (pending_adjustment_)</text><rect fill="#FFFFFF" height="33.9688" rx="12.5" ry="12.5" style="stroke:#000000;stroke-width:1.0;" width="174" x="16.5" y="364.1201"/><text fill="#000000" font-family="Verdana" font-size="12" lengthAdjust="spacing" textLength="154" x="26.5" y="385.2588">&#36820;&#22238; set_exposure(8000)</text><rect fill="#FFFFFF" height="33.9688" rx="12.5" ry="12.5" style="stroke:#000000;stroke-width:1.0;" width="92" x="57.5" y="418.0889"/><text fill="#000000" font-family="Verdana" font-size="12" lengthAdjust="spacing" textLength="72" x="67.5" y="439.2275">&#36820;&#22238;&#26368;&#32456;&#31572;&#26696;</text><ellipse cx="103.5" cy="483.0576" fill="none" rx="11" ry="11" style="stroke:#000000;stroke-width:1.0;"/><ellipse cx="103.5" cy="483.0576" fill="#FFFFFF" rx="6" ry="6" style="stroke:#000000;stroke-width:1.0;"/><line style="stroke:#000000;stroke-width:1.0;" x1="10" x2="10" y1="54.3545" y2="957.8076"/><ellipse cx="287" cy="514.0576" fill="#FFFFFF" rx="10" ry="10" style="stroke:#000000;stroke-width:1.0;"/><rect fill="#FFFFFF" height="33.9688" rx="12.5" ry="12.5" style="stroke:#000000;stroke-width:1.0;" width="142" x="216" y="544.0576"/><text fill="#000000" font-family="Verdana" font-size="12" lengthAdjust="spacing" textLength="122" x="226" y="565.1963">&#29992;&#25143;&#36755;&#20837; "&#22270;&#20687;&#26377;&#28857;&#26263;"</text><rect fill="#FFFFFF" height="47.9375" rx="12.5" ry="12.5" style="stroke:#000000;stroke-width:1.0;" width="149" x="212.5" y="598.0264"/><text fill="#000000" font-family="Verdana" font-size="12" lengthAdjust="spacing" textLength="87" x="222.5" y="619.165">&#26500;&#24314; HTTP &#35831;&#27714;</text><text fill="#000000" font-family="Verdana" font-size="12" lengthAdjust="spacing" textLength="129" x="222.5" y="633.1338">&#21547; messages + tools</text><rect fill="#FFFFFF" height="33.9688" rx="12.5" ry="12.5" style="stroke:#000000;stroke-width:1.0;" width="172" x="201" y="665.9639"/><text fill="#000000" font-family="Verdana" font-size="12" lengthAdjust="spacing" textLength="152" x="211" y="687.1025">&#21457;&#36865;&#21040; OpenAI/DeepSeek</text><rect fill="#FFFFFF" height="33.9688" rx="12.5" ry="12.5" style="stroke:#000000;stroke-width:1.0;" width="92" x="241" y="719.9326"/><text fill="#000000" font-family="Verdana" font-size="12" lengthAdjust="spacing" textLength="72" x="251" y="741.0713">&#27169;&#22411;&#25512;&#29702;&#20915;&#31574;</text><rect fill="#FFFFFF" height="33.9688" rx="12.5" ry="12.5" style="stroke:#000000;stroke-width:1.0;" width="142" x="216" y="773.9014"/><text fill="#000000" font-family="Verdana" font-size="12" lengthAdjust="spacing" textLength="122" x="226" y="795.04">&#35299;&#26512;&#36820;&#22238;&#30340; tool_calls</text><rect fill="#FFFFFF" height="33.9688" rx="12.5" ry="12.5" style="stroke:#000000;stroke-width:1.0;" width="98" x="238" y="827.8701"/><text fill="#000000" font-family="Verdana" font-size="12" lengthAdjust="spacing" textLength="78" x="248" y="849.0088">&#35843;&#29992;&#23545;&#24212; Tool</text><rect fill="#FFFFFF" height="33.9688" rx="12.5" ry="12.5" style="stroke:#000000;stroke-width:1.0;" width="140" x="217" y="881.8389"/><text fill="#000000" font-family="Verdana" font-size="12" lengthAdjust="spacing" textLength="120" x="227" y="902.9775">&#32487;&#32493;&#24490;&#29615;&#30452;&#21040;&#26368;&#32456;&#31572;&#26696;</text><ellipse cx="287" cy="946.8076" fill="none" rx="11" ry="11" style="stroke:#000000;stroke-width:1.0;"/><ellipse cx="287" cy="946.8076" fill="#FFFFFF" rx="6" ry="6" style="stroke:#000000;stroke-width:1.0;"/><line style="stroke:#000000;stroke-width:1.0;" x1="195" x2="195" y1="54.3545" y2="957.8076"/><line style="stroke:#000000;stroke-width:1.0;" x1="377" x2="377" y1="54.3545" y2="957.8076"/><line style="stroke:#000000;stroke-width:1.0;" x1="103.5" x2="103.5" y1="100.3076" y2="120.3076"/><polygon fill="#000000" points="99.5,110.3076,103.5,120.3076,107.5,110.3076,103.5,114.3076" style="stroke:#000000;stroke-width:1.0;"/><line style="stroke:#000000;stroke-width:1.0;" x1="103.5" x2="103.5" y1="154.2764" y2="174.2764"/><polygon fill="#000000" points="99.5,164.2764,103.5,174.2764,107.5,164.2764,103.5,168.2764" style="stroke:#000000;stroke-width:1.0;"/><line style="stroke:#000000;stroke-width:1.0;" x1="103.5" x2="103.5" y1="222.2139" y2="242.2139"/><polygon fill="#000000" points="99.5,232.2139,103.5,242.2139,107.5,232.2139,103.5,236.2139" style="stroke:#000000;stroke-width:1.0;"/><line style="stroke:#000000;stroke-width:1.0;" x1="103.5" x2="103.5" y1="276.1826" y2="296.1826"/><polygon fill="#000000" points="99.5,286.1826,103.5,296.1826,107.5,286.1826,103.5,290.1826" style="stroke:#000000;stroke-width:1.0;"/><line style="stroke:#000000;stroke-width:1.0;" x1="103.5" x2="103.5" y1="344.1201" y2="364.1201"/><polygon fill="#000000" points="99.5,354.1201,103.5,364.1201,107.5,354.1201,103.5,358.1201" style="stroke:#000000;stroke-width:1.0;"/><line style="stroke:#000000;stroke-width:1.0;" x1="103.5" x2="103.5" y1="398.0889" y2="418.0889"/><polygon fill="#000000" points="99.5,408.0889,103.5,418.0889,107.5,408.0889,103.5,412.0889" style="stroke:#000000;stroke-width:1.0;"/><line style="stroke:#000000;stroke-width:1.0;" x1="103.5" x2="103.5" y1="452.0576" y2="472.0576"/><polygon fill="#000000" points="99.5,462.0576,103.5,472.0576,107.5,462.0576,103.5,466.0576" style="stroke:#000000;stroke-width:1.0;"/><line style="stroke:#000000;stroke-width:1.0;" x1="287" x2="287" y1="524.0576" y2="544.0576"/><polygon fill="#000000" points="283,534.0576,287,544.0576,291,534.0576,287,538.0576" style="stroke:#000000;stroke-width:1.0;"/><line style="stroke:#000000;stroke-width:1.0;" x1="287" x2="287" y1="578.0264" y2="598.0264"/><polygon fill="#000000" points="283,588.0264,287,598.0264,291,588.0264,287,592.0264" style="stroke:#000000;stroke-width:1.0;"/><line style="stroke:#000000;stroke-width:1.0;" x1="287" x2="287" y1="645.9639" y2="665.9639"/><polygon fill="#000000" points="283,655.9639,287,665.9639,291,655.9639,287,659.9639" style="stroke:#000000;stroke-width:1.0;"/><line style="stroke:#000000;stroke-width:1.0;" x1="287" x2="287" y1="699.9326" y2="719.9326"/><polygon fill="#000000" points="283,709.9326,287,719.9326,291,709.9326,287,713.9326" style="stroke:#000000;stroke-width:1.0;"/><line style="stroke:#000000;stroke-width:1.0;" x1="287" x2="287" y1="753.9014" y2="773.9014"/><polygon fill="#000000" points="283,763.9014,287,773.9014,291,763.9014,287,767.9014" style="stroke:#000000;stroke-width:1.0;"/><line style="stroke:#000000;stroke-width:1.0;" x1="287" x2="287" y1="807.8701" y2="827.8701"/><polygon fill="#000000" points="283,817.8701,287,827.8701,291,817.8701,287,821.8701" style="stroke:#000000;stroke-width:1.0;"/><line style="stroke:#000000;stroke-width:1.0;" x1="287" x2="287" y1="861.8389" y2="881.8389"/><polygon fill="#000000" points="283,871.8389,287,881.8389,291,871.8389,287,875.8389" style="stroke:#000000;stroke-width:1.0;"/><line style="stroke:#000000;stroke-width:1.0;" x1="287" x2="287" y1="915.8076" y2="935.8076"/><polygon fill="#000000" points="283,925.8076,287,935.8076,291,925.8076,287,929.8076" style="stroke:#000000;stroke-width:1.0;"/><text fill="#000000" font-family="Verdana" font-size="18" lengthAdjust="spacing" textLength="89" x="58" y="71.0625">mock &#31034;&#20363;</text><text fill="#000000" font-family="Verdana" font-size="18" lengthAdjust="spacing" textLength="120" x="226" y="71.0625">&#30495;&#23454; LLM &#31034;&#20363;</text></g></svg>