<?xml version="1.0" encoding="us-ascii" standalone="no"?><svg xmlns="http://www.w3.org/2000/svg" xmlns:xlink="http://www.w3.org/1999/xlink" contentStyleType="text/css" height="280px" preserveAspectRatio="none" style="width:972px;height:280px;background:#FFFFFF;" version="1.1" viewBox="0 0 972 280" width="972px" zoomAndPan="magnify"><defs/><g><text fill="#000000" font-family="Verdana" font-size="22" font-weight="bold" lengthAdjust="spacing" textLength="161" x="401" y="35.4209">&#34892;&#20559;&#31227;&#37327;&#30340;&#20316;&#29992;</text><g id="cluster_Text"><rect fill="#FFFFFF" height="207.5" rx="2.5" ry="2.5" style="stroke:#000000;stroke-width:1.0;" width="342" x="12" y="66.6094"/><rect fill="#FFFFFF" height="10" style="stroke:#000000;stroke-width:1.0;" width="15" x="334" y="71.6094"/><rect fill="#FFFFFF" height="2" style="stroke:#000000;stroke-width:1.0;" width="4" x="332" y="73.6094"/><rect fill="#FFFFFF" height="2" style="stroke:#000000;stroke-width:1.0;" width="4" x="332" y="77.6094"/><text fill="#000000" font-family="Verdana" font-size="14" font-weight="bold" lengthAdjust="spacing" textLength="88" x="139" y="92.6045">text_ &#23383;&#31526;&#20018;</text></g><g id="cluster_Lines"><rect fill="#FFFFFF" height="97" rx="2.5" ry="2.5" style="stroke:#000000;stroke-width:1.0;" width="198" x="768" y="66.6094"/><rect fill="#FFFFFF" height="10" style="stroke:#000000;stroke-width:1.0;" width="15" x="946" y="71.6094"/><rect fill="#FFFFFF" height="2" style="stroke:#000000;stroke-width:1.0;" width="4" x="944" y="73.6094"/><rect fill="#FFFFFF" height="2" style="stroke:#000000;stroke-width:1.0;" width="4" x="944" y="77.6094"/><text fill="#000000" font-family="Verdana" font-size="14" font-weight="bold" lengthAdjust="spacing" textLength="79" x="827.5" y="92.6045">lines_ &#25968;&#32452;</text></g><g id="cluster_Offsets"><rect fill="#FFFFFF" height="113" rx="2.5" ry="2.5" style="stroke:#000000;stroke-width:1.0;" width="259" x="477" y="58.6094"/><rect fill="#FFFFFF" height="10" style="stroke:#000000;stroke-width:1.0;" width="15" x="716" y="63.6094"/><rect fill="#FFFFFF" height="2" style="stroke:#000000;stroke-width:1.0;" width="4" x="714" y="65.6094"/><rect fill="#FFFFFF" height="2" style="stroke:#000000;stroke-width:1.0;" width="4" x="714" y="69.6094"/><text fill="#000000" font-family="Verdana" font-size="14" font-weight="bold" lengthAdjust="spacing" textLength="133" x="540" y="84.6045">line_offsets_ &#25968;&#32452;</text></g><g id="elem_0: &quot;Line 1 content&quot;"><rect fill="#FFFFFF" height="46.2969" rx="2.5" ry="2.5" style="stroke:#000000;stroke-width:1.0;" width="167" x="39.5" y="101.6094"/><rect fill="#FFFFFF" height="10" style="stroke:#000000;stroke-width:1.0;" width="15" x="186.5" y="106.6094"/><rect fill="#FFFFFF" height="2" style="stroke:#000000;stroke-width:1.0;" width="4" x="184.5" y="108.6094"/><rect fill="#FFFFFF" height="2" style="stroke:#000000;stroke-width:1.0;" width="4" x="184.5" y="112.6094"/><text fill="#000000" font-family="Verdana" font-size="14" lengthAdjust="spacing" textLength="127" x="54.5" y="134.6045">0: "Line 1 content"</text></g><g id="elem_N: &quot;\\n&quot;"><rect fill="#FFFFFF" height="46.2969" rx="2.5" ry="2.5" style="stroke:#000000;stroke-width:1.0;" width="83" x="241.5" y="101.6094"/><rect fill="#FFFFFF" height="10" style="stroke:#000000;stroke-width:1.0;" width="15" x="304.5" y="106.6094"/><rect fill="#FFFFFF" height="2" style="stroke:#000000;stroke-width:1.0;" width="4" x="302.5" y="108.6094"/><rect fill="#FFFFFF" height="2" style="stroke:#000000;stroke-width:1.0;" width="4" x="302.5" y="112.6094"/><text fill="#000000" font-family="Verdana" font-size="14" lengthAdjust="spacing" textLength="43" x="256.5" y="134.6045">N: "\n"</text></g><g id="elem_N+1: &quot;Line 2 content&quot;"><rect fill="#FFFFFF" height="46.2969" rx="2.5" ry="2.5" style="stroke:#000000;stroke-width:1.0;" width="189" x="28.5" y="212.1094"/><rect fill="#FFFFFF" height="10" style="stroke:#000000;stroke-width:1.0;" width="15" x="197.5" y="217.1094"/><rect fill="#FFFFFF" height="2" style="stroke:#000000;stroke-width:1.0;" width="4" x="195.5" y="219.1094"/><rect fill="#FFFFFF" height="2" style="stroke:#000000;stroke-width:1.0;" width="4" x="195.5" y="223.1094"/><text fill="#000000" font-family="Verdana" font-size="14" lengthAdjust="spacing" textLength="149" x="43.5" y="245.1045">N+1: "Line 2 content"</text></g><g id="elem_M: &quot;\\n&quot;"><rect fill="#FFFFFF" height="46.2969" rx="2.5" ry="2.5" style="stroke:#000000;stroke-width:1.0;" width="85" x="252.5" y="212.1094"/><rect fill="#FFFFFF" height="10" style="stroke:#000000;stroke-width:1.0;" width="15" x="317.5" y="217.1094"/><rect fill="#FFFFFF" height="2" style="stroke:#000000;stroke-width:1.0;" width="4" x="315.5" y="219.1094"/><rect fill="#FFFFFF" height="2" style="stroke:#000000;stroke-width:1.0;" width="4" x="315.5" y="223.1094"/><text fill="#000000" font-family="Verdana" font-size="14" lengthAdjust="spacing" textLength="45" x="267.5" y="245.1045">M: "\n"</text></g><g id="elem_1: &quot;Line 2 content&quot;"><rect fill="#FFFFFF" height="46.2969" rx="2.5" ry="2.5" style="stroke:#000000;stroke-width:1.0;" width="167" x="783.5" y="101.6094"/><rect fill="#FFFFFF" height="10" style="stroke:#000000;stroke-width:1.0;" width="15" x="930.5" y="106.6094"/><rect fill="#FFFFFF" height="2" style="stroke:#000000;stroke-width:1.0;" width="4" x="928.5" y="108.6094"/><rect fill="#FFFFFF" height="2" style="stroke:#000000;stroke-width:1.0;" width="4" x="928.5" y="112.6094"/><text fill="#000000" font-family="Verdana" font-size="14" lengthAdjust="spacing" textLength="127" x="798.5" y="134.6045">1: "Line 2 content"</text></g><g id="elem_0: 0"><rect fill="#FFFFFF" height="46.2969" rx="2.5" ry="2.5" style="stroke:#000000;stroke-width:1.0;" width="67" x="644.5" y="101.6094"/><rect fill="#FFFFFF" height="10" style="stroke:#000000;stroke-width:1.0;" width="15" x="691.5" y="106.6094"/><rect fill="#FFFFFF" height="2" style="stroke:#000000;stroke-width:1.0;" width="4" x="689.5" y="108.6094"/><rect fill="#FFFFFF" height="2" style="stroke:#000000;stroke-width:1.0;" width="4" x="689.5" y="112.6094"/><text fill="#000000" font-family="Verdana" font-size="14" lengthAdjust="spacing" textLength="27" x="659.5" y="134.6045">0: 0</text></g><g id="elem_1: N+1"><rect fill="#FFFFFF" height="46.2969" rx="2.5" ry="2.5" style="stroke:#000000;stroke-width:1.0;" width="89" x="520.5" y="101.6094"/><rect fill="#FFFFFF" height="10" style="stroke:#000000;stroke-width:1.0;" width="15" x="589.5" y="106.6094"/><rect fill="#FFFFFF" height="2" style="stroke:#000000;stroke-width:1.0;" width="4" x="587.5" y="108.6094"/><rect fill="#FFFFFF" height="2" style="stroke:#000000;stroke-width:1.0;" width="4" x="587.5" y="112.6094"/><text fill="#000000" font-family="Verdana" font-size="14" lengthAdjust="spacing" textLength="49" x="535.5" y="134.6045">1: N+1</text></g><g id="elem_GMN12"><path d="M373,207.6094 L373,263.0078 L597,263.0078 L597,217.6094 L587,207.6094 L373,207.6094 " fill="#FFFFFF" style="stroke:#000000;stroke-width:1.0;"/><path d="M587,207.6094 L587,217.6094 L597,217.6094 L587,207.6094 " fill="#FFFFFF" style="stroke:#000000;stroke-width:1.0;"/><text fill="#000000" font-family="Verdana" font-size="13" lengthAdjust="spacing" textLength="117" x="379" y="224.6763">&#24403;&#38656;&#35201;&#28378;&#21160;&#21040;&#26576;&#34892;&#26102;</text><text fill="#000000" font-family="Verdana" font-size="13" lengthAdjust="spacing" textLength="109" x="379" y="239.8091">&#21487;&#20197;&#29992; offset &#23450;&#20301;</text><text fill="#000000" font-family="Verdana" font-size="13" lengthAdjust="spacing" textLength="203" x="379" y="254.9419">QTextCursor::setPosition(offset)</text></g><g id="link_Offsets_GMN12"><path d="M485,171.693 C485,172.8029 485,173.9174 485,175.0347 C485,177.2693 485,179.5149 485,181.7561 C485,190.7212 485,199.6172 485,207.4631 " fill="none" id="Offsets-GMN12" style="stroke:#000000;stroke-width:1.0;stroke-dasharray:7.0,7.0;"/></g></g></svg>