<?xml version="1.0" encoding="us-ascii" standalone="no"?><svg xmlns="http://www.w3.org/2000/svg" xmlns:xlink="http://www.w3.org/1999/xlink" contentStyleType="text/css" height="1257px" preserveAspectRatio="none" style="width:1668px;height:1257px;background:#FFFFFF;" version="1.1" viewBox="0 0 1668 1257" width="1668px" zoomAndPan="magnify"><defs/><g><text fill="#000000" font-family="Verdana" font-size="22" font-weight="bold" lengthAdjust="spacing" textLength="257" x="701.25" y="37.1182">AI &#26085;&#24535;&#20998;&#26512;&#21161;&#25163;&#26680;&#24515;&#31867;&#22270;</text><!--class LogDocument--><g id="elem_LogDocument"><rect codeLine="4" fill="#FFFFFF" height="384.293" id="LogDocument" rx="2.5" ry="2.5" style="stroke:#000000;stroke-width:1.0;" width="304" x="12" y="590.7373"/><ellipse cx="111.25" cy="604.7373" fill="#FFFFFF" rx="9" ry="9" style="stroke:#000000;stroke-width:1.0;"/><path d="M114.0156,606.2686 L116.4063,607.0186 Q115.8594,609.0029 114.5781,609.9717 Q113.3125,610.9404 111.3438,610.9404 Q108.9219,610.9404 107.3594,609.2842 Q105.8125,607.6279 105.8125,604.7529 Q105.8125,601.7217 107.375,600.0498 Q108.9375,598.3623 111.5,598.3623 Q113.7344,598.3623 115.125,599.6748 Q115.9531,600.4561 116.375,601.9248 L113.9375,602.5029 Q113.7188,601.5498 113.0313,601.0029 Q112.3594,600.4561 111.375,600.4561 Q110.0156,600.4561 109.1719,601.4404 Q108.3438,602.4092 108.3438,604.5811 Q108.3438,606.8779 109.1719,607.8623 Q110,608.8467 111.3281,608.8467 Q112.3125,608.8467 113.0156,608.2217 Q113.7188,607.5967 114.0156,606.2686 Z " fill="#000000"/><text fill="#000000" font-family="Verdana" font-size="14" lengthAdjust="spacing" textLength="98" x="128.75" y="610.3052">LogDocument</text><line style="stroke:#000000;stroke-width:1.0;" x1="13" x2="315" y1="618.7373" y2="618.7373"/><text fill="#000000" font-family="Verdana" font-size="14" lengthAdjust="spacing" textLength="134" x="18" y="636.8125">file_path_: QString</text><text fill="#000000" font-family="Verdana" font-size="14" lengthAdjust="spacing" textLength="103" x="18" y="653.8271">text_: QString</text><text fill="#000000" font-family="Verdana" font-size="14" lengthAdjust="spacing" textLength="184" x="18" y="670.8418">lines_: QVector&lt;QString&gt;</text><text fill="#000000" font-family="Verdana" font-size="14" lengthAdjust="spacing" textLength="198" x="18" y="687.8564">line_offsets_: QVector&lt;int&gt;</text><text fill="#000000" font-family="Verdana" font-size="14" lengthAdjust="spacing" textLength="229" x="18" y="704.8711">markers_: QVector&lt;LogMarker&gt;</text><line style="stroke:#000000;stroke-width:1.0;" x1="13" x2="315" y1="711.8105" y2="711.8105"/><text fill="#000000" font-family="Verdana" font-size="14" lengthAdjust="spacing" textLength="222" x="18" y="729.8857">LoadFromFile(path, error): bool</text><text fill="#000000" font-family="Verdana" font-size="14" lengthAdjust="spacing" textLength="47" x="18" y="746.9004">Clear()</text><text fill="#000000" font-family="Verdana" font-size="14" lengthAdjust="spacing" textLength="111" x="18" y="763.915">IsEmpty(): bool</text><text fill="#000000" font-family="Verdana" font-size="14" lengthAdjust="spacing" textLength="112" x="18" y="780.9297">LineCount(): int</text><text fill="#000000" font-family="Verdana" font-size="14" lengthAdjust="spacing" textLength="130" x="18" y="797.9443">FilePath(): QString</text><text fill="#000000" font-family="Verdana" font-size="14" lengthAdjust="spacing" textLength="140" x="18" y="814.959">PlainText(): QString</text><text fill="#000000" font-family="Verdana" font-size="14" lengthAdjust="spacing" textLength="265" x="18" y="831.9736">Excerpt(start_line, end_line): QString</text><text fill="#000000" font-family="Verdana" font-size="14" lengthAdjust="spacing" textLength="163" x="18" y="848.9883">SummaryJson(): string</text><text fill="#000000" font-family="Verdana" font-size="14" lengthAdjust="spacing" textLength="292" x="18" y="866.0029">SearchJson(query, max_matches): string</text><text fill="#000000" font-family="Verdana" font-size="14" lengthAdjust="spacing" textLength="136" x="18" y="883.0176">AddMarker(marker)</text><text fill="#000000" font-family="Verdana" font-size="14" lengthAdjust="spacing" textLength="152" x="18" y="900.0322">ApplyToEditor(editor)</text><text fill="#000000" font-family="Verdana" font-size="14" lengthAdjust="spacing" textLength="170" x="18" y="917.0469">ScrollToLine(editor, line)</text><text fill="#000000" font-family="Verdana" font-size="14" lengthAdjust="spacing" textLength="182" x="18" y="934.0615">ColorForLine(line): QColor</text><text fill="#000000" font-family="Verdana" font-size="14" lengthAdjust="spacing" textLength="243" x="18" y="951.0762">ColorForSeverity(severity): QColor</text><text fill="#000000" font-family="Verdana" font-size="14" lengthAdjust="spacing" textLength="158" x="18" y="968.0908">OffsetForLine(line): int</text></g><!--class LogMarker--><g id="elem_LogMarker"><rect codeLine="27" fill="#FFFFFF" height="112.0586" id="LogMarker" rx="2.5" ry="2.5" style="stroke:#000000;stroke-width:1.0;" width="132" x="98" y="1051.7373"/><ellipse cx="124.95" cy="1065.7373" fill="#FFFFFF" rx="9" ry="9" style="stroke:#000000;stroke-width:1.0;"/><path d="M127.7156,1067.2686 L130.1063,1068.0186 Q129.5594,1070.0029 128.2781,1070.9717 Q127.0125,1071.9404 125.0438,1071.9404 Q122.6219,1071.9404 121.0594,1070.2842 Q119.5125,1068.6279 119.5125,1065.7529 Q119.5125,1062.7217 121.075,1061.0498 Q122.6375,1059.3623 125.2,1059.3623 Q127.4344,1059.3623 128.825,1060.6748 Q129.6531,1061.4561 130.075,1062.9248 L127.6375,1063.5029 Q127.4188,1062.5498 126.7313,1062.0029 Q126.0594,1061.4561 125.075,1061.4561 Q123.7156,1061.4561 122.8719,1062.4404 Q122.0438,1063.4092 122.0438,1065.5811 Q122.0438,1067.8779 122.8719,1068.8623 Q123.7,1069.8467 125.0281,1069.8467 Q126.0125,1069.8467 126.7156,1069.2217 Q127.4188,1068.5967 127.7156,1067.2686 Z " fill="#000000"/><text fill="#000000" font-family="Verdana" font-size="14" lengthAdjust="spacing" textLength="73" x="140.05" y="1071.3052">LogMarker</text><line style="stroke:#000000;stroke-width:1.0;" x1="99" x2="229" y1="1079.7373" y2="1079.7373"/><text fill="#000000" font-family="Verdana" font-size="14" lengthAdjust="spacing" textLength="95" x="104" y="1097.8125">start_line: int</text><text fill="#000000" font-family="Verdana" font-size="14" lengthAdjust="spacing" textLength="87" x="104" y="1114.8271">end_line: int</text><text fill="#000000" font-family="Verdana" font-size="14" lengthAdjust="spacing" textLength="120" x="104" y="1131.8418">severity: QString</text><text fill="#000000" font-family="Verdana" font-size="14" lengthAdjust="spacing" textLength="97" x="104" y="1148.8564">note: QString</text><line style="stroke:#000000;stroke-width:1.0;" x1="99" x2="229" y1="1155.7959" y2="1155.7959"/></g><!--class LogTools--><g id="elem_LogTools"><rect codeLine="33" fill="#FFFFFF" height="180.1172" id="LogTools" rx="2.5" ry="2.5" style="stroke:#000000;stroke-width:1.0;" width="348" x="599" y="59.7373"/><ellipse cx="737.25" cy="73.7373" fill="#FFFFFF" rx="9" ry="9" style="stroke:#000000;stroke-width:1.0;"/><path d="M740.0156,75.2686 L742.4063,76.0186 Q741.8594,78.0029 740.5781,78.9717 Q739.3125,79.9404 737.3438,79.9404 Q734.9219,79.9404 733.3594,78.2842 Q731.8125,76.6279 731.8125,73.7529 Q731.8125,70.7217 733.375,69.0498 Q734.9375,67.3623 737.5,67.3623 Q739.7344,67.3623 741.125,68.6748 Q741.9531,69.4561 742.375,70.9248 L739.9375,71.5029 Q739.7188,70.5498 739.0313,70.0029 Q738.3594,69.4561 737.375,69.4561 Q736.0156,69.4561 735.1719,70.4404 Q734.3438,71.4092 734.3438,73.5811 Q734.3438,75.8779 735.1719,76.8623 Q736,77.8467 737.3281,77.8467 Q738.3125,77.8467 739.0156,77.2217 Q739.7188,76.5967 740.0156,75.2686 Z " fill="#000000"/><text fill="#000000" font-family="Verdana" font-size="14" lengthAdjust="spacing" textLength="64" x="754.75" y="79.3052">LogTools</text><line style="stroke:#000000;stroke-width:1.0;" x1="600" x2="946" y1="87.7373" y2="87.7373"/><text fill="#000000" font-family="Verdana" font-size="14" lengthAdjust="spacing" textLength="197" x="605" y="105.8125">document_: LogDocument*</text><text fill="#000000" font-family="Verdana" font-size="14" lengthAdjust="spacing" textLength="140" x="605" y="122.8271">editor_: QTextEdit*</text><line style="stroke:#000000;stroke-width:1.0;" x1="600" x2="946" y1="129.7666" y2="129.7666"/><text fill="#000000" font-family="Verdana" font-size="14" lengthAdjust="spacing" textLength="182" x="605" y="147.8418">Register(registry): Status</text><text fill="#000000" font-family="Verdana" font-size="14" lengthAdjust="spacing" textLength="336" x="605" y="164.8564">get_log_overview(arguments_json): ToolResult</text><text fill="#000000" font-family="Verdana" font-size="14" lengthAdjust="spacing" textLength="289" x="605" y="181.8711">search_log(arguments_json): ToolResult</text><text fill="#000000" font-family="Verdana" font-size="14" lengthAdjust="spacing" textLength="336" x="605" y="198.8857">read_log_excerpt(arguments_json): ToolResult</text><text fill="#000000" font-family="Verdana" font-size="14" lengthAdjust="spacing" textLength="323" x="605" y="215.9004">mark_log_issue(arguments_json): ToolResult</text><text fill="#000000" font-family="Verdana" font-size="14" lengthAdjust="spacing" textLength="105" x="605" y="232.915">HasLog(): bool</text></g><!--class LogAnalyzerWindow--><g id="elem_LogAnalyzerWindow"><rect codeLine="44" fill="#FFFFFF" height="197.1318" id="LogAnalyzerWindow" rx="2.5" ry="2.5" style="stroke:#000000;stroke-width:1.0;" width="310" x="550" y="316.7373"/><ellipse cx="630.25" cy="330.7373" fill="#FFFFFF" rx="9" ry="9" style="stroke:#000000;stroke-width:1.0;"/><path d="M633.0156,332.2686 L635.4063,333.0186 Q634.8594,335.0029 633.5781,335.9717 Q632.3125,336.9404 630.3438,336.9404 Q627.9219,336.9404 626.3594,335.2842 Q624.8125,333.6279 624.8125,330.7529 Q624.8125,327.7217 626.375,326.0498 Q627.9375,324.3623 630.5,324.3623 Q632.7344,324.3623 634.125,325.6748 Q634.9531,326.4561 635.375,327.9248 L632.9375,328.5029 Q632.7188,327.5498 632.0313,327.0029 Q631.3594,326.4561 630.375,326.4561 Q629.0156,326.4561 628.1719,327.4404 Q627.3438,328.4092 627.3438,330.5811 Q627.3438,332.8779 628.1719,333.8623 Q629,334.8467 630.3281,334.8467 Q631.3125,334.8467 632.0156,334.2217 Q632.7188,333.5967 633.0156,332.2686 Z " fill="#000000"/><text fill="#000000" font-family="Verdana" font-size="14" lengthAdjust="spacing" textLength="142" x="647.75" y="336.3052">LogAnalyzerWindow</text><line style="stroke:#000000;stroke-width:1.0;" x1="551" x2="859" y1="344.7373" y2="344.7373"/><text fill="#000000" font-family="Verdana" font-size="14" lengthAdjust="spacing" textLength="298" x="556" y="362.8125">ui_: unique_ptr&lt;Ui::LogAnalyzerWindow&gt;</text><text fill="#000000" font-family="Verdana" font-size="14" lengthAdjust="spacing" textLength="188" x="556" y="379.8271">document_: LogDocument</text><text fill="#000000" font-family="Verdana" font-size="14" lengthAdjust="spacing" textLength="126" x="556" y="396.8418">cli_running_: bool</text><line style="stroke:#000000;stroke-width:1.0;" x1="551" x2="859" y1="403.7813" y2="403.7813"/><text fill="#000000" font-family="Verdana" font-size="14" lengthAdjust="spacing" textLength="200" x="556" y="421.8564">LogAnalyzerWindow(parent)</text><text fill="#000000" font-family="Verdana" font-size="14" lengthAdjust="spacing" textLength="165" x="556" y="438.8711">~LogAnalyzerWindow()</text><text fill="#000000" font-family="Verdana" font-size="14" lengthAdjust="spacing" textLength="108" x="556" y="455.8857">ImportLogFile()</text><text fill="#000000" font-family="Verdana" font-size="14" lengthAdjust="spacing" textLength="107" x="556" y="472.9004">OpenAgentCli()</text><text fill="#000000" font-family="Verdana" font-size="14" lengthAdjust="spacing" textLength="105" x="556" y="489.915">OnCliFinished()</text><text fill="#000000" font-family="Verdana" font-size="14" lengthAdjust="spacing" textLength="120" x="556" y="506.9297">UpdateLogView()</text></g><!--class EscapeJson--><g id="elem_EscapeJson"><rect codeLine="56" fill="#FFFFFF" height="61.0146" id="EscapeJson" rx="2.5" ry="2.5" style="stroke:#000000;stroke-width:1.0;" width="193" x="1130.5" y="119.2373"/><ellipse cx="1182.75" cy="133.2373" fill="#FFFFFF" rx="9" ry="9" style="stroke:#000000;stroke-width:1.0;"/><path d="M1185.5156,134.7686 L1187.9063,135.5186 Q1187.3594,137.5029 1186.0781,138.4717 Q1184.8125,139.4404 1182.8438,139.4404 Q1180.4219,139.4404 1178.8594,137.7842 Q1177.3125,136.1279 1177.3125,133.2529 Q1177.3125,130.2217 1178.875,128.5498 Q1180.4375,126.8623 1183,126.8623 Q1185.2344,126.8623 1186.625,128.1748 Q1187.4531,128.9561 1187.875,130.4248 L1185.4375,131.0029 Q1185.2188,130.0498 1184.5313,129.5029 Q1183.8594,128.9561 1182.875,128.9561 Q1181.5156,128.9561 1180.6719,129.9404 Q1179.8438,130.9092 1179.8438,133.0811 Q1179.8438,135.3779 1180.6719,136.3623 Q1181.5,137.3467 1182.8281,137.3467 Q1183.8125,137.3467 1184.5156,136.7217 Q1185.2188,136.0967 1185.5156,134.7686 Z " fill="#000000"/><text fill="#000000" font-family="Verdana" font-size="14" lengthAdjust="spacing" textLength="81" x="1200.25" y="138.8052">EscapeJson</text><line style="stroke:#000000;stroke-width:1.0;" x1="1131.5" x2="1322.5" y1="147.2373" y2="147.2373"/><line style="stroke:#000000;stroke-width:1.0;" x1="1131.5" x2="1322.5" y1="155.2373" y2="155.2373"/><text fill="#000000" font-family="Verdana" font-size="14" lengthAdjust="spacing" textLength="181" x="1136.5" y="173.3125">EscapeJson(input): string</text></g><!--class ReadEnvOrDefault--><g id="elem_ReadEnvOrDefault"><rect codeLine="59" fill="#FFFFFF" height="61.0146" id="ReadEnvOrDefault" rx="2.5" ry="2.5" style="stroke:#000000;stroke-width:1.0;" width="303" x="1358.5" y="119.2373"/><ellipse cx="1442.25" cy="133.2373" fill="#FFFFFF" rx="9" ry="9" style="stroke:#000000;stroke-width:1.0;"/><path d="M1445.0156,134.7686 L1447.4063,135.5186 Q1446.8594,137.5029 1445.5781,138.4717 Q1444.3125,139.4404 1442.3438,139.4404 Q1439.9219,139.4404 1438.3594,137.7842 Q1436.8125,136.1279 1436.8125,133.2529 Q1436.8125,130.2217 1438.375,128.5498 Q1439.9375,126.8623 1442.5,126.8623 Q1444.7344,126.8623 1446.125,128.1748 Q1446.9531,128.9561 1447.375,130.4248 L1444.9375,131.0029 Q1444.7188,130.0498 1444.0313,129.5029 Q1443.3594,128.9561 1442.375,128.9561 Q1441.0156,128.9561 1440.1719,129.9404 Q1439.3438,130.9092 1439.3438,133.0811 Q1439.3438,135.3779 1440.1719,136.3623 Q1441,137.3467 1442.3281,137.3467 Q1443.3125,137.3467 1444.0156,136.7217 Q1444.7188,136.0967 1445.0156,134.7686 Z " fill="#000000"/><text fill="#000000" font-family="Verdana" font-size="14" lengthAdjust="spacing" textLength="128" x="1459.75" y="138.8052">ReadEnvOrDefault</text><line style="stroke:#000000;stroke-width:1.0;" x1="1359.5" x2="1660.5" y1="147.2373" y2="147.2373"/><line style="stroke:#000000;stroke-width:1.0;" x1="1359.5" x2="1660.5" y1="155.2373" y2="155.2373"/><text fill="#000000" font-family="Verdana" font-size="14" lengthAdjust="spacing" textLength="291" x="1364.5" y="173.3125">ReadEnvOrDefault(name, fallback): string</text></g><!--class ConsoleHelper--><g id="elem_ConsoleHelper"><rect codeLine="62" fill="#FFFFFF" height="95.0439" id="ConsoleHelper" rx="2.5" ry="2.5" style="stroke:#000000;stroke-width:1.0;" width="217" x="351.5" y="735.2373"/><ellipse cx="406.25" cy="749.2373" fill="#FFFFFF" rx="9" ry="9" style="stroke:#000000;stroke-width:1.0;"/><path d="M409.0156,750.7686 L411.4063,751.5186 Q410.8594,753.5029 409.5781,754.4717 Q408.3125,755.4404 406.3438,755.4404 Q403.9219,755.4404 402.3594,753.7842 Q400.8125,752.1279 400.8125,749.2529 Q400.8125,746.2217 402.375,744.5498 Q403.9375,742.8623 406.5,742.8623 Q408.7344,742.8623 410.125,744.1748 Q410.9531,744.9561 411.375,746.4248 L408.9375,747.0029 Q408.7188,746.0498 408.0313,745.5029 Q407.3594,744.9561 406.375,744.9561 Q405.0156,744.9561 404.1719,745.9404 Q403.3438,746.9092 403.3438,749.0811 Q403.3438,751.3779 404.1719,752.3623 Q405,753.3467 406.3281,753.3467 Q407.3125,753.3467 408.0156,752.7217 Q408.7188,752.0967 409.0156,750.7686 Z " fill="#000000"/><text fill="#000000" font-family="Verdana" font-size="14" lengthAdjust="spacing" textLength="100" x="423.75" y="754.8052">ConsoleHelper</text><line style="stroke:#000000;stroke-width:1.0;" x1="352.5" x2="567.5" y1="763.2373" y2="763.2373"/><line style="stroke:#000000;stroke-width:1.0;" x1="352.5" x2="567.5" y1="771.2373" y2="771.2373"/><text fill="#000000" font-family="Verdana" font-size="14" lengthAdjust="spacing" textLength="158" x="357.5" y="789.3125">EnsureConsole(): bool</text><text fill="#000000" font-family="Verdana" font-size="14" lengthAdjust="spacing" textLength="121" x="357.5" y="806.3271">ReleaseConsole()</text><text fill="#000000" font-family="Verdana" font-size="14" lengthAdjust="spacing" textLength="205" x="357.5" y="823.3418">DisableConsoleCloseButton()</text></g><!--class ToolRegistry--><g id="elem_ToolRegistry"><rect codeLine="67" fill="#FFFFFF" height="44" id="ToolRegistry" rx="2.5" ry="2.5" style="stroke:#000000;stroke-width:1.0;" width="202" x="895" y="393.2373"/><ellipse cx="908" cy="407.2373" fill="#FFFFFF" rx="9" ry="9" style="stroke:#000000;stroke-width:1.0;"/><path d="M910.7656,408.7686 L913.1563,409.5186 Q912.6094,411.5029 911.3281,412.4717 Q910.0625,413.4404 908.0938,413.4404 Q905.6719,413.4404 904.1094,411.7842 Q902.5625,410.1279 902.5625,407.2529 Q902.5625,404.2217 904.125,402.5498 Q905.6875,400.8623 908.25,400.8623 Q910.4844,400.8623 911.875,402.1748 Q912.7031,402.9561 913.125,404.4248 L910.6875,405.0029 Q910.4688,404.0498 909.7813,403.5029 Q909.1094,402.9561 908.125,402.9561 Q906.7656,402.9561 905.9219,403.9404 Q905.0938,404.9092 905.0938,407.0811 Q905.0938,409.3779 905.9219,410.3623 Q906.75,411.3467 908.0781,411.3467 Q909.0625,411.3467 909.7656,410.7217 Q910.4688,410.0967 910.7656,408.7686 Z " fill="#000000"/><text fill="#000000" font-family="Verdana" font-size="14" lengthAdjust="spacing" textLength="174" x="920" y="412.8052">agent4cpp::ToolRegistry</text><line style="stroke:#000000;stroke-width:1.0;" x1="896" x2="1096" y1="421.2373" y2="421.2373"/><line style="stroke:#000000;stroke-width:1.0;" x1="896" x2="1096" y1="429.2373" y2="429.2373"/></g><!--class Agent--><g id="elem_Agent"><rect codeLine="68" fill="#FFFFFF" height="44" id="Agent" rx="2.5" ry="2.5" style="stroke:#000000;stroke-width:1.0;" width="156" x="751" y="760.7373"/><ellipse cx="764" cy="774.7373" fill="#FFFFFF" rx="9" ry="9" style="stroke:#000000;stroke-width:1.0;"/><path d="M766.7656,776.2686 L769.1563,777.0186 Q768.6094,779.0029 767.3281,779.9717 Q766.0625,780.9404 764.0938,780.9404 Q761.6719,780.9404 760.1094,779.2842 Q758.5625,777.6279 758.5625,774.7529 Q758.5625,771.7217 760.125,770.0498 Q761.6875,768.3623 764.25,768.3623 Q766.4844,768.3623 767.875,769.6748 Q768.7031,770.4561 769.125,771.9248 L766.6875,772.5029 Q766.4688,771.5498 765.7813,771.0029 Q765.1094,770.4561 764.125,770.4561 Q762.7656,770.4561 761.9219,771.4404 Q761.0938,772.4092 761.0938,774.5811 Q761.0938,776.8779 761.9219,777.8623 Q762.75,778.8467 764.0781,778.8467 Q765.0625,778.8467 765.7656,778.2217 Q766.4688,777.5967 766.7656,776.2686 Z " fill="#000000"/><text fill="#000000" font-family="Verdana" font-size="14" lengthAdjust="spacing" textLength="128" x="776" y="780.3052">agent4cpp::Agent</text><line style="stroke:#000000;stroke-width:1.0;" x1="752" x2="906" y1="788.7373" y2="788.7373"/><line style="stroke:#000000;stroke-width:1.0;" x1="752" x2="906" y1="796.7373" y2="796.7373"/></g><!--class ILLMClient--><g id="elem_ILLMClient"><rect codeLine="69" fill="#FFFFFF" height="44" id="ILLMClient" rx="2.5" ry="2.5" style="stroke:#000000;stroke-width:1.0;" width="185" x="942.5" y="760.7373"/><ellipse cx="955.5" cy="774.7373" fill="#FFFFFF" rx="9" ry="9" style="stroke:#000000;stroke-width:1.0;"/><path d="M958.2656,776.2686 L960.6563,777.0186 Q960.1094,779.0029 958.8281,779.9717 Q957.5625,780.9404 955.5938,780.9404 Q953.1719,780.9404 951.6094,779.2842 Q950.0625,777.6279 950.0625,774.7529 Q950.0625,771.7217 951.625,770.0498 Q953.1875,768.3623 955.75,768.3623 Q957.9844,768.3623 959.375,769.6748 Q960.2031,770.4561 960.625,771.9248 L958.1875,772.5029 Q957.9688,771.5498 957.2813,771.0029 Q956.6094,770.4561 955.625,770.4561 Q954.2656,770.4561 953.4219,771.4404 Q952.5938,772.4092 952.5938,774.5811 Q952.5938,776.8779 953.4219,777.8623 Q954.25,778.8467 955.5781,778.8467 Q956.5625,778.8467 957.2656,778.2217 Q957.9688,777.5967 958.2656,776.2686 Z " fill="#000000"/><text fill="#000000" font-family="Verdana" font-size="14" lengthAdjust="spacing" textLength="157" x="967.5" y="780.3052">agent4cpp::ILLMClient</text><line style="stroke:#000000;stroke-width:1.0;" x1="943.5" x2="1126.5" y1="788.7373" y2="788.7373"/><line style="stroke:#000000;stroke-width:1.0;" x1="943.5" x2="1126.5" y1="796.7373" y2="796.7373"/></g><!--class InteractiveCli--><g id="elem_InteractiveCli"><rect codeLine="70" fill="#FFFFFF" height="44" id="InteractiveCli" rx="2.5" ry="2.5" style="stroke:#000000;stroke-width:1.0;" width="204" x="1163" y="760.7373"/><ellipse cx="1176" cy="774.7373" fill="#FFFFFF" rx="9" ry="9" style="stroke:#000000;stroke-width:1.0;"/><path d="M1178.7656,776.2686 L1181.1563,777.0186 Q1180.6094,779.0029 1179.3281,779.9717 Q1178.0625,780.9404 1176.0938,780.9404 Q1173.6719,780.9404 1172.1094,779.2842 Q1170.5625,777.6279 1170.5625,774.7529 Q1170.5625,771.7217 1172.125,770.0498 Q1173.6875,768.3623 1176.25,768.3623 Q1178.4844,768.3623 1179.875,769.6748 Q1180.7031,770.4561 1181.125,771.9248 L1178.6875,772.5029 Q1178.4688,771.5498 1177.7813,771.0029 Q1177.1094,770.4561 1176.125,770.4561 Q1174.7656,770.4561 1173.9219,771.4404 Q1173.0938,772.4092 1173.0938,774.5811 Q1173.0938,776.8779 1173.9219,777.8623 Q1174.75,778.8467 1176.0781,778.8467 Q1177.0625,778.8467 1177.7656,778.2217 Q1178.4688,777.5967 1178.7656,776.2686 Z " fill="#000000"/><text fill="#000000" font-family="Verdana" font-size="14" lengthAdjust="spacing" textLength="176" x="1188" y="780.3052">agent4cpp::InteractiveCli</text><line style="stroke:#000000;stroke-width:1.0;" x1="1164" x2="1366" y1="788.7373" y2="788.7373"/><line style="stroke:#000000;stroke-width:1.0;" x1="1164" x2="1366" y1="796.7373" y2="796.7373"/></g><!--class ToolResult--><g id="elem_ToolResult"><rect codeLine="71" fill="#FFFFFF" height="44" id="ToolResult" rx="2.5" ry="2.5" style="stroke:#000000;stroke-width:1.0;" width="188" x="1132" y="393.2373"/><ellipse cx="1145" cy="407.2373" fill="#FFFFFF" rx="9" ry="9" style="stroke:#000000;stroke-width:1.0;"/><path d="M1147.7656,408.7686 L1150.1563,409.5186 Q1149.6094,411.5029 1148.3281,412.4717 Q1147.0625,413.4404 1145.0938,413.4404 Q1142.6719,413.4404 1141.1094,411.7842 Q1139.5625,410.1279 1139.5625,407.2529 Q1139.5625,404.2217 1141.125,402.5498 Q1142.6875,400.8623 1145.25,400.8623 Q1147.4844,400.8623 1148.875,402.1748 Q1149.7031,402.9561 1150.125,404.4248 L1147.6875,405.0029 Q1147.4688,404.0498 1146.7813,403.5029 Q1146.1094,402.9561 1145.125,402.9561 Q1143.7656,402.9561 1142.9219,403.9404 Q1142.0938,404.9092 1142.0938,407.0811 Q1142.0938,409.3779 1142.9219,410.3623 Q1143.75,411.3467 1145.0781,411.3467 Q1146.0625,411.3467 1146.7656,410.7217 Q1147.4688,410.0967 1147.7656,408.7686 Z " fill="#000000"/><text fill="#000000" font-family="Verdana" font-size="14" lengthAdjust="spacing" textLength="160" x="1157" y="412.8052">agent4cpp::ToolResult</text><line style="stroke:#000000;stroke-width:1.0;" x1="1133" x2="1319" y1="421.2373" y2="421.2373"/><line style="stroke:#000000;stroke-width:1.0;" x1="1133" x2="1319" y1="429.2373" y2="429.2373"/></g><g id="elem_GMN14"><path d="M604,754.2373 L604,811.6353 L716,811.6353 L716,764.2373 L706,754.2373 L604,754.2373 " fill="#FFFFFF" style="stroke:#000000;stroke-width:1.0;"/><path d="M706,754.2373 L706,764.2373 L716,764.2373 L706,754.2373 " fill="#FFFFFF" style="stroke:#000000;stroke-width:1.0;"/><text fill="#000000" font-family="Verdana" font-size="13" lengthAdjust="spacing" textLength="78" x="610" y="772.3071">&#26085;&#24535;&#25968;&#25454;&#27169;&#22411;</text><text fill="#000000" font-family="Verdana" font-size="13" lengthAdjust="spacing" textLength="91" x="610" y="788.1064">&#31649;&#29702;&#25991;&#26412;&#21644;&#26631;&#27880;</text><text fill="#000000" font-family="Verdana" font-size="13" lengthAdjust="spacing" textLength="78" x="610" y="803.9058">&#25903;&#25345;&#34892;&#21495;&#23450;&#20301;</text></g><g id="elem_GMN17"><path d="M120.5,1224.7373 L120.5,1250.5366 A0,0 0 0 0 120.5,1250.5366 L207.5,1250.5366 A0,0 0 0 0 207.5,1250.5366 L207.5,1234.7373 L197.5,1224.7373 L168,1224.7373 L164,1163.7673 L160,1224.7373 L120.5,1224.7373 A0,0 0 0 0 120.5,1224.7373 " fill="#FFFFFF" style="stroke:#000000;stroke-width:1.0;"/><path d="M197.5,1224.7373 L197.5,1234.7373 L207.5,1234.7373 L197.5,1224.7373 " fill="#FFFFFF" style="stroke:#000000;stroke-width:1.0;"/><text fill="#000000" font-family="Verdana" font-size="13" lengthAdjust="spacing" textLength="66" x="126.5" y="1242.8071">AI&#26631;&#27880;&#20449;&#24687;</text></g><g id="elem_GMN20"><path d="M982.5,128.7373 L982.5,145.7373 L947.04,149.7373 L982.5,153.7373 L982.5,170.3359 A0,0 0 0 0 982.5,170.3359 L1095.5,170.3359 A0,0 0 0 0 1095.5,170.3359 L1095.5,138.7373 L1085.5,128.7373 L982.5,128.7373 A0,0 0 0 0 982.5,128.7373 " fill="#FFFFFF" style="stroke:#000000;stroke-width:1.0;"/><path d="M1085.5,128.7373 L1085.5,138.7373 L1095.5,138.7373 L1085.5,128.7373 " fill="#FFFFFF" style="stroke:#000000;stroke-width:1.0;"/><text fill="#000000" font-family="Verdana" font-size="13" lengthAdjust="spacing" textLength="66" x="988.5" y="146.8071">AI&#24037;&#20855;&#23454;&#29616;</text><text fill="#000000" font-family="Verdana" font-size="13" lengthAdjust="spacing" textLength="92" x="988.5" y="162.6064">&#36830;&#25509;Agent&#21644;UI</text></g><g id="elem_GMN23"><path d="M427.5,394.2373 L427.5,435.8359 A0,0 0 0 0 427.5,435.8359 L514.5,435.8359 A0,0 0 0 0 514.5,435.8359 L514.5,419.2373 L549.78,415.2373 L514.5,411.2373 L514.5,404.2373 L504.5,394.2373 L427.5,394.2373 A0,0 0 0 0 427.5,394.2373 " fill="#FFFFFF" style="stroke:#000000;stroke-width:1.0;"/><path d="M504.5,394.2373 L504.5,404.2373 L514.5,404.2373 L504.5,394.2373 " fill="#FFFFFF" style="stroke:#000000;stroke-width:1.0;"/><text fill="#000000" font-family="Verdana" font-size="13" lengthAdjust="spacing" textLength="55" x="433.5" y="412.3071">Qt&#20027;&#31383;&#21475;</text><text fill="#000000" font-family="Verdana" font-size="13" lengthAdjust="spacing" textLength="66" x="433.5" y="428.1064">UI&#20107;&#20214;&#22788;&#29702;</text></g><!--link LogDocument to GMN14--><g id="link_LogDocument_GMN14"><path d="M294.32,590.6373 C311.8,575.3473 330.89,562.0373 351.5,552.2373 C438.6,510.8173 487.41,500.0273 568.5,552.2373 C637.46,596.6373 654.46,702.5973 658.64,753.9073 " fill="none" id="LogDocument-GMN14" style="stroke:#000000;stroke-width:1.0;stroke-dasharray:7.0,7.0;"/></g><!--reverse link LogAnalyzerWindow to LogDocument--><g id="link_LogAnalyzerWindow_LogDocument"><path codeLine="90" d="M539.2069,510.3639 C533.1869,513.3739 537.92,510.9373 532,513.7373 C446.66,554.1273 411.54,536.8673 334,590.7373 C327.98,594.9173 322.04,599.3473 316.18,603.9873 " fill="none" id="LogAnalyzerWindow-backto-LogDocument" style="stroke:#000000;stroke-width:1.0;"/><polygon fill="#000000" points="549.94,504.9973,542.7846,504.1029,539.2069,510.3639,546.3623,511.2583,549.94,504.9973" style="stroke:#000000;stroke-width:1.0;"/><text fill="#000000" font-family="Verdana" font-size="13" lengthAdjust="spacing" textLength="26" x="442" y="557.8071">&#21253;&#21547;</text></g><!--reverse link LogDocument to LogMarker--><g id="link_LogDocument_LogMarker"><path codeLine="91" d="M164,986.8973 C164,1014.8173 164,1029.5173 164,1051.4973 " fill="none" id="LogDocument-backto-LogMarker" style="stroke:#000000;stroke-width:1.0;"/><polygon fill="#000000" points="164,974.8973,160,980.8973,164,986.8973,168,980.8973,164,974.8973" style="stroke:#000000;stroke-width:1.0;"/><text fill="#000000" font-family="Verdana" font-size="13" lengthAdjust="spacing" textLength="26" x="165" y="1018.8071">&#21253;&#21547;</text></g><!--link LogAnalyzerWindow to LogTools--><g id="link_LogAnalyzerWindow_LogTools"><path codeLine="92" d="M695.33,316.5073 C695.94,300.6873 697.9,284.6173 702,269.7373 C704.78,259.6473 706.1546,255.0046 710.6846,245.1946 " fill="none" id="LogAnalyzerWindow-to-LogTools" style="stroke:#000000;stroke-width:1.0;"/><polygon fill="#000000" points="713.2,239.7473,705.7954,246.2413,711.1038,244.2867,713.0584,249.5951,713.2,239.7473" style="stroke:#000000;stroke-width:1.0;"/><text fill="#000000" font-family="Verdana" font-size="13" lengthAdjust="spacing" textLength="26" x="703" y="283.8071">&#21019;&#24314;</text></g><!--link LogTools to LogAnalyzerWindow--><g id="link_LogTools_LogAnalyzerWindow"><path codeLine="94" d="M749.98,239.9473 C743.62,264.5773 738.1882,285.6274 731.7182,310.7174 " fill="none" id="LogTools-to-LogAnalyzerWindow" style="stroke:#000000;stroke-width:1.0;"/><polygon fill="#000000" points="730.22,316.5273,736.3406,308.8112,731.4685,311.6857,728.594,306.8136,730.22,316.5273" style="stroke:#000000;stroke-width:1.0;"/><text fill="#000000" font-family="Verdana" font-size="13" lengthAdjust="spacing" textLength="65" x="743" y="283.8071">&#36328;&#32447;&#31243;&#22238;&#35843;</text></g><!--link LogTools to LogDocument--><g id="link_LogTools_LogDocument"><path codeLine="93" d="M598.82,184.9373 C514.5,209.2873 417.23,249.9473 350,316.7373 C275.75,390.5073 231.8987,491.9528 204.4787,584.8428 " fill="none" id="LogTools-to-LogDocument" style="stroke:#000000;stroke-width:1.0;"/><polygon fill="#000000" points="202.78,590.5973,209.1643,583.098,204.1956,585.8019,201.4916,580.8331,202.78,590.5973" style="stroke:#000000;stroke-width:1.0;"/><text fill="#000000" font-family="Verdana" font-size="13" lengthAdjust="spacing" textLength="58" x="351" y="420.8071">&#35835;&#21462;/&#26631;&#27880;</text></g><!--link LogAnalyzerWindow to ConsoleHelper--><g id="link_LogAnalyzerWindow_ConsoleHelper"><path codeLine="95" d="M638.02,513.8873 C620.98,538.8873 602.75,565.7673 586,590.7373 C553.14,639.7273 519.2883,691.1287 493.8983,729.8787 " fill="none" id="LogAnalyzerWindow-to-ConsoleHelper" style="stroke:#000000;stroke-width:1.0;"/><polygon fill="#000000" points="490.61,734.8973,498.8883,729.5616,493.3503,730.7151,492.1968,725.1771,490.61,734.8973" style="stroke:#000000;stroke-width:1.0;"/><text fill="#000000" font-family="Verdana" font-size="13" lengthAdjust="spacing" textLength="65" x="617" y="557.8071">&#25511;&#21046;&#21488;&#31649;&#29702;</text></g><!--link LogTools to ToolRegistry--><g id="link_LogTools_ToolRegistry"><path codeLine="96" d="M848.5,239.9473 C894.74,294.5873 946.3743,355.597 974.2643,388.557 " fill="none" id="LogTools-to-ToolRegistry" style="stroke:#000000;stroke-width:1.0;"/><polygon fill="#000000" points="978.14,393.1373,975.3799,383.6831,974.9102,389.3204,969.2729,388.8507,978.14,393.1373" style="stroke:#000000;stroke-width:1.0;"/><text fill="#000000" font-family="Verdana" font-size="13" lengthAdjust="spacing" textLength="52" x="886" y="283.8071">&#27880;&#20876;&#26041;&#27861;</text></g><!--link LogAnalyzerWindow to Agent--><g id="link_LogAnalyzerWindow_Agent"><path codeLine="97" d="M738.23,514.1873 C766.85,598.5573 804.0624,708.2254 819.9424,755.0354 " fill="none" id="LogAnalyzerWindow-to-Agent" style="stroke:#000000;stroke-width:1.0;"/><polygon fill="#000000" points="821.87,760.7173,822.7666,750.9093,820.2637,755.9824,815.1907,753.4794,821.87,760.7173" style="stroke:#000000;stroke-width:1.0;"/><text fill="#000000" font-family="Verdana" font-size="13" lengthAdjust="spacing" textLength="26" x="754" y="557.8071">&#21019;&#24314;</text></g><!--link LogAnalyzerWindow to ILLMClient--><g id="link_LogAnalyzerWindow_ILLMClient"><path codeLine="98" d="M843.75,513.8973 C872.08,537.2673 900.41,563.4173 924,590.7373 C971.37,645.6073 1006.8462,718.092 1023.4462,755.132 " fill="none" id="LogAnalyzerWindow-to-ILLMClient" style="stroke:#000000;stroke-width:1.0;"/><polygon fill="#000000" points="1025.9,760.6073,1025.8695,750.7585,1023.8551,756.0446,1018.5691,754.0303,1025.9,760.6073" style="stroke:#000000;stroke-width:1.0;"/><text fill="#000000" font-family="Verdana" font-size="13" lengthAdjust="spacing" textLength="26" x="894" y="557.8071">&#21019;&#24314;</text></g><!--link LogAnalyzerWindow to InteractiveCli--><g id="link_LogAnalyzerWindow_InteractiveCli"><path codeLine="99" d="M860.28,506.3773 C865.88,508.9473 871.46,511.4073 877,513.7373 C991.26,561.7373 1045.95,516.2473 1145,590.7373 C1205.25,636.0473 1240.6217,715.6037 1255.5117,755.0637 " fill="none" id="LogAnalyzerWindow-to-InteractiveCli" style="stroke:#000000;stroke-width:1.0;"/><polygon fill="#000000" points="1257.63,760.6773,1258.195,750.8447,1255.8648,755.9993,1250.7102,753.669,1257.63,760.6773" style="stroke:#000000;stroke-width:1.0;"/><text fill="#000000" font-family="Verdana" font-size="13" lengthAdjust="spacing" textLength="26" x="1092" y="557.8071">&#36816;&#34892;</text></g><!--link LogTools to ToolResult--><g id="link_LogTools_ToolResult"><path codeLine="100" d="M947.42,233.1873 C1022.83,269.2973 1097.67,305.9273 1114,316.7373 C1148.4,339.5073 1179.2648,367.6977 1200.7848,388.7877 " fill="none" id="LogTools-to-ToolResult" style="stroke:#000000;stroke-width:1.0;"/><polygon fill="#000000" points="1205.07,392.9873,1201.4419,383.8311,1201.499,389.4876,1195.8424,389.5447,1205.07,392.9873" style="stroke:#000000;stroke-width:1.0;"/><text fill="#000000" font-family="Verdana" font-size="13" lengthAdjust="spacing" textLength="26" x="1051" y="283.8071">&#36820;&#22238;</text></g><!--SRC=[XLLTJnj757tthzZcoI2illJ9Yf2eCOehHoGOqfTArh0xjgUPdTdEp19eb4fH6a8B0LGb89KA1RMez4D0XHHIhDP_nhFcP_JExDgxDb1UOFRSC_VptF57geLzx0GK4PPJH57iJ5MSQFTGTtRrscgqlws__otwRZrwzq5tNlJ-QkkzVtCvbo8fdIflJdCtz35JpjESupG8nVK0gLQzw3oiAK5O4r25bzKGG0d3qY2FiAkuk9jO9XDJdJSQ4giiWp1bh3uIZx786Y23-nOqva81_bGvycO4zsSWbxp9PSB1Gd0nLdGMEQV0A56CH7uCJXLPzWEraazjLOXVuY5J1eEe01b73y2FGT8Q7fX-pKDbmt1vsSKYK7cfa51rKms4Pvuz3H5heG_Lh7mcEJCUv027tDoMXRyAiLYPWAANwpvIRWlBB77Ay-BAyt5NJ3rJGK1NvddP8z2RFBR_35vp1QTqdflg4dZ2jjeOIvnoCSE5DVRpj636MCDBM11ebKmEMTAidTU82zEyPwbEubojIjBUz5lSxr3_knyasp365Kw_CvxdONBIElOIBO8-CieSDm5ipKOtPcIcF-DzlSpX9f4AsYZiGPZAQWgfK8AnYI5Htgnpo6U9u2Tv99hMgQn_2IC2gea-XsL8uxpDyCoDMuW28yywnebU_fzk9cpfHCeGtqA-XoHKFz1qfbDJ3D6Lhx7ud32FFx4j2maq9MG4j5OFbBYxG8h5Ayp96tiB1fUIkWWPWwdK1skKREA87rX70PUCw9xwMBMuzypvufkhDBkQVi250flTOuFC1fXDDU5-YP8OO72Q8Op85lOiiX1uI66uzCZCQcnGUrcwAC1cgMpHwMUUi21KwLhrByp1VCfiQLPCumQ2jjfhes2U8H_Mku4eNKJkuwjUIfn9Jl4zJ8D4-cKcGu4JFFFip65uasHg06YQIBH8-r29Sea_3PKopyKWm1ra-l696mJ5Ogo1MC9t72ITB70DtxRI4ktf6aQbMhqF7UxJqi_hk0nM2BcAB46g9EOFGJTcR5IRoTUAE6UMtH6asL8ERum8BlvfYjwUHg-FewC3lRyEOE_ueBUz6ksyYdxwK_-m4Rrx5PqT6VARasZZ-UN1XjuwryS_TlzvdOF7nZucSP153ZtraoZn8sKUqahieTivY9wVZ5p9vcKV7tj1dn_gbn1ZlxTv2i1bPp_QFBIjXNmMAYC-A6xqNGoB7wu-LDqFxTxlkthhPwFfIlTYlTj-ht_v5YfCtUIkBlHueJ3qarnqzCPBlVr7BWicfEGzpb96l1KAa-dp2horFTs-o0sGn9m9TddIrbix7oUz7oMEU0Vw-L7lejCxMjTx-vUdBsx8O7Y7Yawq-QjUUw-tJkE93uV9IjvmpuxqwaQqytTqzlO6ztP0GzLTGqgLVojpIFEcoCusYE-wB8tGBU4DrFyV]--></g></svg>