<?xml version="1.0" encoding="us-ascii" standalone="no"?><svg xmlns="http://www.w3.org/2000/svg" xmlns:xlink="http://www.w3.org/1999/xlink" contentStyleType="text/css" height="223px" preserveAspectRatio="none" style="width:487px;height:223px;background:#FFFFFF;" version="1.1" viewBox="0 0 487 223" width="487px" zoomAndPan="magnify"><defs/><g><text fill="#000000" font-family="Verdana" font-size="22" font-weight="bold" lengthAdjust="spacing" textLength="165" x="156.75" y="35.4209">LogTools &#31867;&#22270;</text><g id="elem_LogTools"><rect codeLine="4" fill="#FFFFFF" height="158.0781" id="LogTools" rx="2.5" ry="2.5" style="stroke:#000000;stroke-width:1.0;" width="265" x="12" y="58.6094"/><ellipse cx="109.25" cy="72.6094" fill="#FFFFFF" rx="9" ry="9" style="stroke:#000000;stroke-width:1.0;"/><path d="M112.2188,78.25 Q111.6406,78.5469 111,78.6875 Q110.3594,78.8438 109.6563,78.8438 Q107.1563,78.8438 105.8281,77.2031 Q104.5156,75.5469 104.5156,72.4219 Q104.5156,69.2969 105.8281,67.6406 Q107.1563,65.9844 109.6563,65.9844 Q110.3594,65.9844 111,66.1406 Q111.6563,66.2969 112.2188,66.5938 L112.2188,69.3125 Q111.5938,68.7344 111,68.4688 Q110.4063,68.1875 109.7813,68.1875 Q108.4375,68.1875 107.75,69.2656 Q107.0625,70.3281 107.0625,72.4219 Q107.0625,74.5156 107.75,75.5938 Q108.4375,76.6563 109.7813,76.6563 Q110.4063,76.6563 111,76.3906 Q111.5938,76.1094 112.2188,75.5313 L112.2188,78.25 Z " fill="#000000"/><text fill="#000000" font-family="Verdana" font-size="14" lengthAdjust="spacing" textLength="63" x="126.75" y="77.4561">LogTools</text><line style="stroke:#000000;stroke-width:1.0;" x1="13" x2="276" y1="86.6094" y2="86.6094"/><rect fill="none" height="6" style="stroke:#000000;stroke-width:1.0;" width="6" x="20" y="97.2578"/><text fill="#000000" font-family="Verdana" font-size="14" lengthAdjust="spacing" textLength="192" x="30" y="103.6045">document_: LogDocument*</text><rect fill="none" height="6" style="stroke:#000000;stroke-width:1.0;" width="6" x="20" y="113.5547"/><text fill="#000000" font-family="Verdana" font-size="14" lengthAdjust="spacing" textLength="130" x="30" y="119.9014">editor_: QTextEdit*</text><line style="stroke:#000000;stroke-width:1.0;" x1="13" x2="276" y1="127.2031" y2="127.2031"/><ellipse cx="23" cy="140.8516" fill="#FFFFFF" rx="3" ry="3" style="stroke:#000000;stroke-width:1.0;"/><text fill="#000000" font-family="Verdana" font-size="14" lengthAdjust="spacing" textLength="172" x="30" y="144.1982">Register(registry): Status</text><ellipse cx="23" cy="157.1484" fill="#FFFFFF" rx="3" ry="3" style="stroke:#000000;stroke-width:1.0;"/><text fill="#000000" font-family="Verdana" font-size="14" lengthAdjust="spacing" textLength="241" x="30" y="160.4951">get_log_overview(args): ToolResult</text><ellipse cx="23" cy="173.4453" fill="#FFFFFF" rx="3" ry="3" style="stroke:#000000;stroke-width:1.0;"/><text fill="#000000" font-family="Verdana" font-size="14" lengthAdjust="spacing" textLength="198" x="30" y="176.792">search_log(args): ToolResult</text><ellipse cx="23" cy="189.7422" fill="#FFFFFF" rx="3" ry="3" style="stroke:#000000;stroke-width:1.0;"/><text fill="#000000" font-family="Verdana" font-size="14" lengthAdjust="spacing" textLength="241" x="30" y="193.0889">read_log_excerpt(args): ToolResult</text><ellipse cx="23" cy="206.0391" fill="#FFFFFF" rx="3" ry="3" style="stroke:#000000;stroke-width:1.0;"/><text fill="#000000" font-family="Verdana" font-size="14" lengthAdjust="spacing" textLength="229" x="30" y="209.3857">mark_log_issue(args): ToolResult</text></g><g id="elem_GMN3"><path d="M312.5,110.1094 L312.5,133.6094 L277.391,137.6094 L312.5,141.6094 L312.5,165.5078 A0,0 0 0 0 312.5,165.5078 L480.5,165.5078 A0,0 0 0 0 480.5,165.5078 L480.5,120.1094 L470.5,110.1094 L312.5,110.1094 A0,0 0 0 0 312.5,110.1094 " fill="#FFFFFF" style="stroke:#000000;stroke-width:1.0;"/><path d="M470.5,110.1094 L470.5,120.1094 L480.5,120.1094 L470.5,110.1094 " fill="#FFFFFF" style="stroke:#000000;stroke-width:1.0;"/><text fill="#000000" font-family="Verdana" font-size="13" lengthAdjust="spacing" textLength="147" x="318.5" y="127.1763">&#27599;&#20010;&#26041;&#27861;&#36820;&#22238; ToolResult</text><text fill="#000000" font-family="Verdana" font-size="13" lengthAdjust="spacing" textLength="105" x="318.5" y="142.3091">content &#32473;&#27169;&#22411;&#30475;</text><text fill="#000000" font-family="Verdana" font-size="13" lengthAdjust="spacing" textLength="139" x="318.5" y="157.4419">payload_json &#32473;&#31243;&#24207;&#29992;</text></g></g></svg>