<?xml version="1.0" encoding="us-ascii" standalone="no"?><svg xmlns="http://www.w3.org/2000/svg" xmlns:xlink="http://www.w3.org/1999/xlink" contentStyleType="text/css" height="697px" preserveAspectRatio="none" style="width:511px;height:697px;background:#FFFFFF;" version="1.1" viewBox="0 0 511 697" width="511px" zoomAndPan="magnify"><defs/><g><text fill="#000000" font-family="Verdana" font-size="22" font-weight="bold" lengthAdjust="spacing" textLength="290" x="109" y="35.4209">RAG &#26680;&#24515;&#27969;&#31243;&#65288;&#38431;&#21015;&#21015;&#34920;&#65289;</text><rect fill="#FFFFFF" height="20.9531" style="stroke:#FFFFFF;stroke-width:1.0;" width="488" x="10" y="54.3545"/><ellipse cx="81.5" cy="90.3076" fill="#FFFFFF" rx="10" ry="10" style="stroke:#000000;stroke-width:1.0;"/><rect fill="#FFFFFF" height="33.9688" rx="12.5" ry="12.5" style="stroke:#000000;stroke-width:1.0;" width="131" x="16" y="120.3076"/><text fill="#000000" font-family="Verdana" font-size="12" lengthAdjust="spacing" textLength="111" x="26" y="141.4463">&#21152;&#36733;&#25991;&#26723;&#65288;txt/md&#65289;</text><rect fill="#FFFFFF" height="33.9688" rx="12.5" ry="12.5" style="stroke:#000000;stroke-width:1.0;" width="131" x="16" y="174.2764"/><text fill="#000000" font-family="Verdana" font-size="12" lengthAdjust="spacing" textLength="111" x="26" y="195.415">&#25991;&#26723;&#20998;&#22359;&#65288;Chunk&#65289;</text><rect fill="#FFFFFF" height="33.9688" rx="12.5" ry="12.5" style="stroke:#000000;stroke-width:1.0;" width="80" x="41.5" y="228.2451"/><text fill="#000000" font-family="Verdana" font-size="12" lengthAdjust="spacing" textLength="60" x="51.5" y="249.3838">&#23384;&#20837;&#30693;&#35782;&#24211;</text><ellipse cx="81.5" cy="293.2139" fill="none" rx="11" ry="11" style="stroke:#000000;stroke-width:1.0;"/><ellipse cx="81.5" cy="293.2139" fill="#FFFFFF" rx="6" ry="6" style="stroke:#000000;stroke-width:1.0;"/><line style="stroke:#000000;stroke-width:1.0;" x1="10" x2="10" y1="54.3545" y2="690.0264"/><ellipse cx="226.5" cy="324.2139" fill="#FFFFFF" rx="10" ry="10" style="stroke:#000000;stroke-width:1.0;"/><rect fill="#FFFFFF" height="33.9688" rx="12.5" ry="12.5" style="stroke:#000000;stroke-width:1.0;" width="68" x="192.5" y="354.2139"/><text fill="#000000" font-family="Verdana" font-size="12" lengthAdjust="spacing" textLength="48" x="202.5" y="375.3525">&#29992;&#25143;&#25552;&#38382;</text><rect fill="#FFFFFF" height="33.9688" rx="12.5" ry="12.5" style="stroke:#000000;stroke-width:1.0;" width="111" x="171" y="408.1826"/><text fill="#000000" font-family="Verdana" font-size="12" lengthAdjust="spacing" textLength="91" x="181" y="429.3213">&#26816;&#32034;&#30456;&#20851; Chunk</text><rect fill="#FFFFFF" height="33.9688" rx="12.5" ry="12.5" style="stroke:#000000;stroke-width:1.0;" width="139" x="157" y="462.1514"/><text fill="#000000" font-family="Verdana" font-size="12" lengthAdjust="spacing" textLength="119" x="167" y="483.29">&#23558; Chunk &#20316;&#20026;&#19978;&#19979;&#25991;</text><rect fill="#FFFFFF" height="33.9688" rx="12.5" ry="12.5" style="stroke:#000000;stroke-width:1.0;" width="82" x="185.5" y="516.1201"/><text fill="#000000" font-family="Verdana" font-size="12" lengthAdjust="spacing" textLength="62" x="195.5" y="537.2588">&#21457;&#36865;&#32473; LLM</text><rect fill="#FFFFFF" height="33.9688" rx="12.5" ry="12.5" style="stroke:#000000;stroke-width:1.0;" width="118" x="167.5" y="570.0889"/><text fill="#000000" font-family="Verdana" font-size="12" lengthAdjust="spacing" textLength="98" x="177.5" y="591.2275">LLM &#22522;&#20110;&#25991;&#26723;&#22238;&#31572;</text><ellipse cx="226.5" cy="635.0576" fill="none" rx="11" ry="11" style="stroke:#000000;stroke-width:1.0;"/><ellipse cx="226.5" cy="635.0576" fill="#FFFFFF" rx="6" ry="6" style="stroke:#000000;stroke-width:1.0;"/><line style="stroke:#000000;stroke-width:1.0;" x1="151" x2="151" y1="54.3545" y2="690.0264"/><rect fill="#FFFFFF" height="33.9688" rx="12.5" ry="12.5" style="stroke:#000000;stroke-width:1.0;" width="186" x="306" y="656.0576"/><text fill="#000000" font-family="Verdana" font-size="12" lengthAdjust="spacing" textLength="166" x="316" y="677.1963">&#26500;&#24314;&#22909;&#30340;&#30693;&#35782;&#24211;&#65288;&#31163;&#32447;&#8594;&#22312;&#32447;&#65289;</text><line style="stroke:#000000;stroke-width:1.0;" x1="300" x2="300" y1="54.3545" y2="690.0264"/><line style="stroke:#000000;stroke-width:1.0;" x1="496" x2="496" y1="54.3545" y2="690.0264"/><line style="stroke:#000000;stroke-width:1.0;" x1="81.5" x2="81.5" y1="100.3076" y2="120.3076"/><polygon fill="#000000" points="77.5,110.3076,81.5,120.3076,85.5,110.3076,81.5,114.3076" style="stroke:#000000;stroke-width:1.0;"/><line style="stroke:#000000;stroke-width:1.0;" x1="81.5" x2="81.5" y1="154.2764" y2="174.2764"/><polygon fill="#000000" points="77.5,164.2764,81.5,174.2764,85.5,164.2764,81.5,168.2764" style="stroke:#000000;stroke-width:1.0;"/><line style="stroke:#000000;stroke-width:1.0;" x1="81.5" x2="81.5" y1="208.2451" y2="228.2451"/><polygon fill="#000000" points="77.5,218.2451,81.5,228.2451,85.5,218.2451,81.5,222.2451" style="stroke:#000000;stroke-width:1.0;"/><line style="stroke:#000000;stroke-width:1.0;" x1="81.5" x2="81.5" y1="262.2139" y2="282.2139"/><polygon fill="#000000" points="77.5,272.2139,81.5,282.2139,85.5,272.2139,81.5,276.2139" style="stroke:#000000;stroke-width:1.0;"/><line style="stroke:#000000;stroke-width:1.0;" x1="226.5" x2="226.5" y1="334.2139" y2="354.2139"/><polygon fill="#000000" points="222.5,344.2139,226.5,354.2139,230.5,344.2139,226.5,348.2139" style="stroke:#000000;stroke-width:1.0;"/><line style="stroke:#000000;stroke-width:1.0;" x1="226.5" x2="226.5" y1="388.1826" y2="408.1826"/><polygon fill="#000000" points="222.5,398.1826,226.5,408.1826,230.5,398.1826,226.5,402.1826" style="stroke:#000000;stroke-width:1.0;"/><line style="stroke:#000000;stroke-width:1.0;" x1="226.5" x2="226.5" y1="442.1514" y2="462.1514"/><polygon fill="#000000" points="222.5,452.1514,226.5,462.1514,230.5,452.1514,226.5,456.1514" style="stroke:#000000;stroke-width:1.0;"/><line style="stroke:#000000;stroke-width:1.0;" x1="226.5" x2="226.5" y1="496.1201" y2="516.1201"/><polygon fill="#000000" points="222.5,506.1201,226.5,516.1201,230.5,506.1201,226.5,510.1201" style="stroke:#000000;stroke-width:1.0;"/><line style="stroke:#000000;stroke-width:1.0;" x1="226.5" x2="226.5" y1="550.0889" y2="570.0889"/><polygon fill="#000000" points="222.5,560.0889,226.5,570.0889,230.5,560.0889,226.5,564.0889" style="stroke:#000000;stroke-width:1.0;"/><line style="stroke:#000000;stroke-width:1.0;" x1="226.5" x2="226.5" y1="604.0576" y2="624.0576"/><polygon fill="#000000" points="222.5,614.0576,226.5,624.0576,230.5,614.0576,226.5,618.0576" style="stroke:#000000;stroke-width:1.0;"/><text fill="#000000" font-family="Verdana" font-size="18" lengthAdjust="spacing" textLength="72" x="44.5" y="71.0625">&#31163;&#32447;&#38454;&#27573;</text><text fill="#000000" font-family="Verdana" font-size="18" lengthAdjust="spacing" textLength="72" x="189.5" y="71.0625">&#22312;&#32447;&#38454;&#27573;</text><text fill="#000000" font-family="Verdana" font-size="18" lengthAdjust="spacing" textLength="36" x="380" y="71.0625">&#34900;&#25509;</text></g></svg>