<?xml version="1.0" encoding="us-ascii" standalone="no"?><svg xmlns="http://www.w3.org/2000/svg" xmlns:xlink="http://www.w3.org/1999/xlink" contentStyleType="text/css" height="383px" preserveAspectRatio="none" style="width:829px;height:383px;background:#FFFFFF;" version="1.1" viewBox="0 0 829 383" width="829px" zoomAndPan="magnify"><defs/><g><text fill="#000000" font-family="Verdana" font-size="22" font-weight="bold" lengthAdjust="spacing" textLength="161" x="329.5" y="35.4209">&#25991;&#26723;&#20998;&#22359;&#19982;&#37325;&#21472;</text><g id="cluster_&#21407;&#22987;&#25991;&#26723;"><rect fill="#FFFFFF" height="97" rx="2.5" ry="2.5" style="stroke:#000000;stroke-width:1.0;" width="128" x="217" y="58.6094"/><text fill="#000000" font-family="Verdana" font-size="14" font-weight="bold" lengthAdjust="spacing" textLength="60" x="251" y="73.6045">&#21407;&#22987;&#25991;&#26723;</text></g><g id="cluster_&#22359; 1"><rect fill="#FFFFFF" height="113" rx="2.5" ry="2.5" style="stroke:#000000;stroke-width:1.0;" width="221" x="12" y="187.6094"/><text fill="#000000" font-family="Verdana" font-size="14" font-weight="bold" lengthAdjust="spacing" textLength="30" x="107.5" y="202.6045">&#22359; 1</text></g><g id="cluster_&#22359; 2"><rect fill="#FFFFFF" height="113" rx="2.5" ry="2.5" style="stroke:#000000;stroke-width:1.0;" width="255" x="273" y="187.6094"/><text fill="#000000" font-family="Verdana" font-size="14" font-weight="bold" lengthAdjust="spacing" textLength="30" x="385.5" y="202.6045">&#22359; 2</text></g><g id="cluster_&#22359; 3"><rect fill="#FFFFFF" height="113" rx="2.5" ry="2.5" style="stroke:#000000;stroke-width:1.0;" width="255" x="568" y="187.6094"/><text fill="#000000" font-family="Verdana" font-size="14" font-weight="bold" lengthAdjust="spacing" textLength="30" x="680.5" y="202.6045">&#22359; 3</text></g><g id="elem_&#25991;&#26412;&#20869;&#23481;"><rect fill="#FFFFFF" height="46.2969" rx="2.5" ry="2.5" style="stroke:#000000;stroke-width:1.0;" width="96" x="233" y="93.6094"/><rect fill="#FFFFFF" height="10" style="stroke:#000000;stroke-width:1.0;" width="15" x="309" y="98.6094"/><rect fill="#FFFFFF" height="2" style="stroke:#000000;stroke-width:1.0;" width="4" x="307" y="100.6094"/><rect fill="#FFFFFF" height="2" style="stroke:#000000;stroke-width:1.0;" width="4" x="307" y="104.6094"/><text fill="#000000" font-family="Verdana" font-size="14" lengthAdjust="spacing" textLength="56" x="248" y="126.6045">&#25991;&#26412;&#20869;&#23481;</text></g><g id="elem_&#25991;&#26412;&#21069; 1200 &#23383;&#31526;"><rect fill="#FFFFFF" height="46.2969" rx="2.5" ry="2.5" style="stroke:#000000;stroke-width:1.0;" width="154" x="55" y="230.6094"/><rect fill="#FFFFFF" height="10" style="stroke:#000000;stroke-width:1.0;" width="15" x="189" y="235.6094"/><rect fill="#FFFFFF" height="2" style="stroke:#000000;stroke-width:1.0;" width="4" x="187" y="237.6094"/><rect fill="#FFFFFF" height="2" style="stroke:#000000;stroke-width:1.0;" width="4" x="187" y="241.6094"/><text fill="#000000" font-family="Verdana" font-size="14" lengthAdjust="spacing" textLength="114" x="70" y="263.6045">&#25991;&#26412;&#21069; 1200 &#23383;&#31526;</text></g><g id="elem_&#25991;&#26412; 1080~2280 &#23383;&#31526;"><rect fill="#FFFFFF" height="46.2969" rx="2.5" ry="2.5" style="stroke:#000000;stroke-width:1.0;" width="188" x="316" y="230.6094"/><rect fill="#FFFFFF" height="10" style="stroke:#000000;stroke-width:1.0;" width="15" x="484" y="235.6094"/><rect fill="#FFFFFF" height="2" style="stroke:#000000;stroke-width:1.0;" width="4" x="482" y="237.6094"/><rect fill="#FFFFFF" height="2" style="stroke:#000000;stroke-width:1.0;" width="4" x="482" y="241.6094"/><text fill="#000000" font-family="Verdana" font-size="14" lengthAdjust="spacing" textLength="148" x="331" y="263.6045">&#25991;&#26412; 1080~2280 &#23383;&#31526;</text></g><g id="elem_&#25991;&#26412; 2160~3360 &#23383;&#31526;"><rect fill="#FFFFFF" height="46.2969" rx="2.5" ry="2.5" style="stroke:#000000;stroke-width:1.0;" width="188" x="611" y="230.6094"/><rect fill="#FFFFFF" height="10" style="stroke:#000000;stroke-width:1.0;" width="15" x="779" y="235.6094"/><rect fill="#FFFFFF" height="2" style="stroke:#000000;stroke-width:1.0;" width="4" x="777" y="237.6094"/><rect fill="#FFFFFF" height="2" style="stroke:#000000;stroke-width:1.0;" width="4" x="777" y="241.6094"/><text fill="#000000" font-family="Verdana" font-size="14" lengthAdjust="spacing" textLength="148" x="626" y="263.6045">&#25991;&#26412; 2160~3360 &#23383;&#31526;</text></g><g id="elem_GMN10"><path d="M225,336.6094 L225,376.875 L337,376.875 L337,346.6094 L327,336.6094 L225,336.6094 " fill="#FFFFFF" style="stroke:#000000;stroke-width:1.0;"/><path d="M327,336.6094 L327,346.6094 L337,346.6094 L327,336.6094 " fill="#FFFFFF" style="stroke:#000000;stroke-width:1.0;"/><text fill="#000000" font-family="Verdana" font-size="13" lengthAdjust="spacing" textLength="84" x="231" y="353.6763">&#37325;&#21472; 120 &#23383;&#31526;</text><text fill="#000000" font-family="Verdana" font-size="13" lengthAdjust="spacing" textLength="91" x="231" y="368.8091">&#20445;&#25345;&#19978;&#19979;&#25991;&#36830;&#32493;</text></g><g id="link_&#22359; 2_GMN10"><path d="M281,300.8587 C281,301.1354 281,301.4123 281,301.6894 C281,302.7976 281,303.908 281,305.0185 C281,307.2395 281,309.4607 281,311.665 C281,320.482 281,329.0279 281,336.2028 " fill="none" id="&#22359; 2-GMN10" style="stroke:#000000;stroke-width:1.0;stroke-dasharray:7.0,7.0;"/></g><g id="link_&#25991;&#26412;&#20869;&#23481;_&#22359; 1"><path d="M232.762,122.3294 C170.215,129.4354 65.9313,144.9694 39,171.6094 C35.8166,174.7584 33.1257,178.3325 30.8545,182.1826 C30.2867,183.1451 29.7451,184.1249 29.2286,185.1196 C28.9704,185.6169 28.7185,186.118 28.4726,186.6225 C28.3497,186.8747 30.7894,181.7019 30.6696,181.9558 " fill="none" id="&#25991;&#26412;&#20869;&#23481;-to-&#22359; 1" style="stroke:#000000;stroke-width:1.0;"/><polygon fill="#000000" points="28.1085,187.3818,35.5674,180.9503,30.2427,182.8602,28.3328,177.5355,28.1085,187.3818" style="stroke:#000000;stroke-width:1.0;"/></g><g id="link_&#25991;&#26412;&#20869;&#23481;_&#22359; 2"><path d="M281,139.9024 C281,149.3384 281,160.9559 281,173.1097 C281,176.1482 281,179.2201 281,182.2999 C281,183.8398 281,185.3817 281,186.9223 C281,187.1148 281,181.3074 281,181.4999 " fill="none" id="&#25991;&#26412;&#20869;&#23481;-to-&#22359; 2" style="stroke:#000000;stroke-width:1.0;"/><polygon fill="#000000" points="281,187.4999,285,178.4999,281,182.4999,277,178.4999,281,187.4999" style="stroke:#000000;stroke-width:1.0;"/></g><g id="link_&#25991;&#26412;&#20869;&#23481;_&#22359; 3"><path d="M329.016,118.3894 C380.362,121.3814 462.188,132.5604 520,171.6094 C537.5675,183.4749 551.2552,202.8499 560.7,219.6756 C563.0612,223.8821 565.1572,227.9292 566.9823,231.6598 C567.2105,232.1261 567.4344,232.5875 567.654,233.0436 C567.7639,233.2717 565.2857,228.0848 565.3934,228.3102 " fill="none" id="&#25991;&#26412;&#20869;&#23481;-to-&#22359; 3" style="stroke:#000000;stroke-width:1.0;"/><polygon fill="#000000" points="567.9804,233.7238,567.709,223.8787,565.8245,229.2125,560.4908,227.328,567.9804,233.7238" style="stroke:#000000;stroke-width:1.0;"/></g></g></svg>