<?xml version="1.0" encoding="us-ascii" standalone="no"?><svg xmlns="http://www.w3.org/2000/svg" xmlns:xlink="http://www.w3.org/1999/xlink" contentStyleType="text/css" height="566px" preserveAspectRatio="none" style="width:1058px;height:566px;background:#FFFFFF;" version="1.1" viewBox="0 0 1058 566" width="1058px" zoomAndPan="magnify"><defs/><g><text fill="#000000" font-family="Verdana" font-size="22" font-weight="bold" lengthAdjust="spacing" textLength="129" x="460" y="35.4209">Agent &#26500;&#25104;</text><g id="cluster_Agent"><rect fill="#FFFFFF" height="502" rx="2.5" ry="2.5" style="stroke:#000000;stroke-width:1.0;" width="1040" x="12" y="58.6094"/><text fill="#000000" font-family="Verdana" font-size="14" font-weight="bold" lengthAdjust="spacing" textLength="47" x="508.5" y="73.6045">Agent</text></g><g id="cluster_Brain"><rect fill="#FFFFFF" height="113" rx="2.5" ry="2.5" style="stroke:#000000;stroke-width:1.0;" width="177" x="343" y="109.6094"/><text fill="#000000" font-family="Verdana" font-size="14" font-weight="bold" lengthAdjust="spacing" textLength="91" x="386" y="124.6045">LLM&#65288;&#22823;&#33041;&#65289;</text></g><g id="cluster_Memory"><rect fill="#FFFFFF" height="113" rx="2.5" ry="2.5" style="stroke:#000000;stroke-width:1.0;" width="294" x="44" y="262.6094"/><text fill="#000000" font-family="Verdana" font-size="14" font-weight="bold" lengthAdjust="spacing" textLength="30" x="176" y="277.6045">&#35760;&#24518;</text></g><g id="cluster_Tools"><rect fill="#FFFFFF" height="266" rx="2.5" ry="2.5" style="stroke:#000000;stroke-width:1.0;" width="280" x="378" y="262.6094"/><text fill="#000000" font-family="Verdana" font-size="14" font-weight="bold" lengthAdjust="spacing" textLength="45" x="495.5" y="277.6045">&#24037;&#20855;&#38598;</text></g><g id="cluster_Action"><rect fill="#FFFFFF" height="113" rx="2.5" ry="2.5" style="stroke:#000000;stroke-width:1.0;" width="322" x="698" y="415.6094"/><text fill="#000000" font-family="Verdana" font-size="14" font-weight="bold" lengthAdjust="spacing" textLength="60" x="829" y="430.6045">&#34892;&#21160;&#27169;&#22359;</text></g><g id="elem_&#25512;&#29702;&#19982;&#20915;&#31574;"><rect fill="#FFFFFF" height="46.2969" rx="2.5" ry="2.5" style="stroke:#000000;stroke-width:1.0;" width="110" x="386" y="152.6094"/><rect fill="#FFFFFF" height="10" style="stroke:#000000;stroke-width:1.0;" width="15" x="476" y="157.6094"/><rect fill="#FFFFFF" height="2" style="stroke:#000000;stroke-width:1.0;" width="4" x="474" y="159.6094"/><rect fill="#FFFFFF" height="2" style="stroke:#000000;stroke-width:1.0;" width="4" x="474" y="163.6094"/><text fill="#000000" font-family="Verdana" font-size="14" lengthAdjust="spacing" textLength="70" x="401" y="185.6045">&#25512;&#29702;&#19982;&#20915;&#31574;</text></g><g id="elem_&#23545;&#35805;&#21382;&#21490;"><rect fill="#FFFFFF" height="46.2969" rx="2.5" ry="2.5" style="stroke:#000000;stroke-width:1.0;" width="96" x="218" y="305.6094"/><rect fill="#FFFFFF" height="10" style="stroke:#000000;stroke-width:1.0;" width="15" x="294" y="310.6094"/><rect fill="#FFFFFF" height="2" style="stroke:#000000;stroke-width:1.0;" width="4" x="292" y="312.6094"/><rect fill="#FFFFFF" height="2" style="stroke:#000000;stroke-width:1.0;" width="4" x="292" y="316.6094"/><text fill="#000000" font-family="Verdana" font-size="14" lengthAdjust="spacing" textLength="56" x="233" y="338.6045">&#23545;&#35805;&#21382;&#21490;</text></g><g id="elem_&#38271;&#26399;&#30693;&#35782;"><rect fill="#FFFFFF" height="46.2969" rx="2.5" ry="2.5" style="stroke:#000000;stroke-width:1.0;" width="96" x="87" y="305.6094"/><rect fill="#FFFFFF" height="10" style="stroke:#000000;stroke-width:1.0;" width="15" x="163" y="310.6094"/><rect fill="#FFFFFF" height="2" style="stroke:#000000;stroke-width:1.0;" width="4" x="161" y="312.6094"/><rect fill="#FFFFFF" height="2" style="stroke:#000000;stroke-width:1.0;" width="4" x="161" y="316.6094"/><text fill="#000000" font-family="Verdana" font-size="14" lengthAdjust="spacing" textLength="56" x="102" y="338.6045">&#38271;&#26399;&#30693;&#35782;</text></g><g id="elem_&#25628;&#32034;"><rect fill="#FFFFFF" height="46.2969" rx="2.5" ry="2.5" style="stroke:#000000;stroke-width:1.0;" width="68" x="414" y="305.6094"/><rect fill="#FFFFFF" height="10" style="stroke:#000000;stroke-width:1.0;" width="15" x="462" y="310.6094"/><rect fill="#FFFFFF" height="2" style="stroke:#000000;stroke-width:1.0;" width="4" x="460" y="312.6094"/><rect fill="#FFFFFF" height="2" style="stroke:#000000;stroke-width:1.0;" width="4" x="460" y="316.6094"/><text fill="#000000" font-family="Verdana" font-size="14" lengthAdjust="spacing" textLength="28" x="429" y="338.6045">&#25628;&#32034;</text></g><g id="elem_&#35745;&#31639;"><rect fill="#FFFFFF" height="46.2969" rx="2.5" ry="2.5" style="stroke:#000000;stroke-width:1.0;" width="68" x="517" y="305.6094"/><rect fill="#FFFFFF" height="10" style="stroke:#000000;stroke-width:1.0;" width="15" x="565" y="310.6094"/><rect fill="#FFFFFF" height="2" style="stroke:#000000;stroke-width:1.0;" width="4" x="563" y="312.6094"/><rect fill="#FFFFFF" height="2" style="stroke:#000000;stroke-width:1.0;" width="4" x="563" y="316.6094"/><text fill="#000000" font-family="Verdana" font-size="14" lengthAdjust="spacing" textLength="28" x="532" y="338.6045">&#35745;&#31639;</text></g><g id="elem_&#35843;&#29992; API"><rect fill="#FFFFFF" height="46.2969" rx="2.5" ry="2.5" style="stroke:#000000;stroke-width:1.0;" width="93" x="401.5" y="458.6094"/><rect fill="#FFFFFF" height="10" style="stroke:#000000;stroke-width:1.0;" width="15" x="474.5" y="463.6094"/><rect fill="#FFFFFF" height="2" style="stroke:#000000;stroke-width:1.0;" width="4" x="472.5" y="465.6094"/><rect fill="#FFFFFF" height="2" style="stroke:#000000;stroke-width:1.0;" width="4" x="472.5" y="469.6094"/><text fill="#000000" font-family="Verdana" font-size="14" lengthAdjust="spacing" textLength="53" x="416.5" y="491.6045">&#35843;&#29992; API</text></g><g id="elem_&#25191;&#34892;&#20195;&#30721;"><rect fill="#FFFFFF" height="46.2969" rx="2.5" ry="2.5" style="stroke:#000000;stroke-width:1.0;" width="96" x="530" y="458.6094"/><rect fill="#FFFFFF" height="10" style="stroke:#000000;stroke-width:1.0;" width="15" x="606" y="463.6094"/><rect fill="#FFFFFF" height="2" style="stroke:#000000;stroke-width:1.0;" width="4" x="604" y="465.6094"/><rect fill="#FFFFFF" height="2" style="stroke:#000000;stroke-width:1.0;" width="4" x="604" y="469.6094"/><text fill="#000000" font-family="Verdana" font-size="14" lengthAdjust="spacing" textLength="56" x="545" y="491.6045">&#25191;&#34892;&#20195;&#30721;</text></g><g id="elem_&#25191;&#34892;&#24037;&#20855;&#35843;&#29992;"><rect fill="#FFFFFF" height="46.2969" rx="2.5" ry="2.5" style="stroke:#000000;stroke-width:1.0;" width="124" x="872" y="458.6094"/><rect fill="#FFFFFF" height="10" style="stroke:#000000;stroke-width:1.0;" width="15" x="976" y="463.6094"/><rect fill="#FFFFFF" height="2" style="stroke:#000000;stroke-width:1.0;" width="4" x="974" y="465.6094"/><rect fill="#FFFFFF" height="2" style="stroke:#000000;stroke-width:1.0;" width="4" x="974" y="469.6094"/><text fill="#000000" font-family="Verdana" font-size="14" lengthAdjust="spacing" textLength="84" x="887" y="491.6045">&#25191;&#34892;&#24037;&#20855;&#35843;&#29992;</text></g><g id="elem_&#36820;&#22238;&#32467;&#26524;"><rect fill="#FFFFFF" height="46.2969" rx="2.5" ry="2.5" style="stroke:#000000;stroke-width:1.0;" width="96" x="741" y="458.6094"/><rect fill="#FFFFFF" height="10" style="stroke:#000000;stroke-width:1.0;" width="15" x="817" y="463.6094"/><rect fill="#FFFFFF" height="2" style="stroke:#000000;stroke-width:1.0;" width="4" x="815" y="465.6094"/><rect fill="#FFFFFF" height="2" style="stroke:#000000;stroke-width:1.0;" width="4" x="815" y="469.6094"/><text fill="#000000" font-family="Verdana" font-size="14" lengthAdjust="spacing" textLength="56" x="756" y="491.6045">&#36820;&#22238;&#32467;&#26524;</text></g><g id="link_Brain_Memory"><path d="M336.728,178.2095 C335.9696,178.2966 340.5672,177.7716 339.7212,177.8703 C332.953,178.6592 323.4321,179.8162 311.9692,181.3356 C289.0434,184.3745 258.3494,188.8631 226.3726,194.7563 C162.419,206.5426 93.334,223.9474 71,246.6094 C67.857,249.7986 65.1965,253.4032 62.9479,257.2758 C62.3857,258.244 61.8493,259.2289 61.3375,260.2282 C61.0816,260.7279 60.8318,261.2312 60.5881,261.7378 C60.4663,261.9911 62.8814,256.8073 62.7626,257.0623 " fill="none" id="Brain-Memory" style="stroke:#000000;stroke-width:1.0;"/><polygon fill="#000000" points="342.6891,177.5274,333.2927,174.5765,337.7215,178.0959,334.2022,182.5247,342.6891,177.5274" style="stroke:#000000;stroke-width:1.0;"/><polygon fill="#000000" points="60.227,262.5002,67.6556,256.0337,62.34,257.9686,60.4051,252.6529,60.227,262.5002" style="stroke:#000000;stroke-width:1.0;"/></g><g id="link_Brain_Tools"><path d="M357.9029,222.7672 C357.9939,222.9657 358.086,223.1636 358.1792,223.3609 C358.3656,223.7555 358.5566,224.1476 358.7523,224.537 C359.1436,225.3158 359.5535,226.0837 359.9829,226.8387 C360.8417,228.3487 361.7785,229.8073 362.7999,231.1984 C364.8428,233.9807 367.2246,236.4934 370,238.6094 C394.044,256.9414 619.895,225.9804 642,246.6094 C645.2026,249.5981 647.7469,253.0508 649.7454,256.8112 C650.245,257.7513 650.7105,258.7106 651.1436,259.6868 C651.3602,260.1748 651.5687,260.6671 651.7693,261.1633 C651.8696,261.4113 651.9679,261.6604 652.0643,261.9104 C652.1125,262.0354 650.0462,256.5454 650.0934,256.6708 " fill="none" id="Brain-to-Tools" style="stroke:#000000;stroke-width:1.0;"/><polygon fill="#000000" points="652.2075,262.2861,652.7799,252.4539,650.4458,257.6067,645.2929,255.2726,652.2075,262.2861" style="stroke:#000000;stroke-width:1.0;"/></g><g id="link_Tools_Action"><path d="M658.0644,351.3533 C658.1415,351.5612 658.219,351.7702 658.2969,351.9803 C658.6086,352.8208 658.9269,353.6791 659.2514,354.5541 C664.4437,368.555 671.2274,386.8469 678.0104,405.1367 C684.7933,423.4265 691.5755,441.7142 696.7646,455.7064 C697.089,456.5809 697.4071,457.4386 697.7186,458.2785 C697.7964,458.4885 695.7876,453.0718 695.8646,453.2795 " fill="none" id="Tools-to-Action" style="stroke:#000000;stroke-width:1.0;"/><polygon fill="#000000" points="697.9509,458.9051,698.5718,449.0758,696.2123,454.2171,691.0711,451.8576,697.9509,458.9051" style="stroke:#000000;stroke-width:1.0;"/></g></g></svg>