<?xml version="1.0" encoding="us-ascii" standalone="no"?><svg xmlns="http://www.w3.org/2000/svg" xmlns:xlink="http://www.w3.org/1999/xlink" contentStyleType="text/css" height="594px" preserveAspectRatio="none" style="width:1049px;height:594px;background:#FFFFFF;" version="1.1" viewBox="0 0 1049 594" width="1049px" zoomAndPan="magnify"><defs/><g><text fill="#000000" font-family="Verdana" font-size="22" font-weight="bold" lengthAdjust="spacing" textLength="161" x="439.75" y="35.4209">&#26680;&#24515;&#27010;&#24565;&#20851;&#31995;&#22270;</text><g id="cluster_Bottom"><rect fill="#F5F5F5" height="97" rx="2.5" ry="2.5" style="stroke:#333333;stroke-width:1.0;" width="164" x="73" y="58.6094"/><text fill="#000000" font-family="Verdana" font-size="14" font-weight="bold" lengthAdjust="spacing" textLength="75" x="117.5" y="73.6045">&#25216;&#26415;&#22522;&#30784;&#23618;</text></g><g id="cluster_Middle"><rect fill="#F5F5F5" height="97" rx="2.5" ry="2.5" style="stroke:#333333;stroke-width:1.0;" width="98" x="170" y="179.6094"/><text fill="#000000" font-family="Verdana" font-size="14" font-weight="bold" lengthAdjust="spacing" textLength="75" x="181.5" y="194.6045">&#26680;&#24515;&#33021;&#21147;&#23618;</text></g><g id="cluster_Top"><rect fill="#F5F5F5" height="203" rx="2.5" ry="2.5" style="stroke:#333333;stroke-width:1.0;" width="403" x="148" y="300.6094"/><text fill="#000000" font-family="Verdana" font-size="14" font-weight="bold" lengthAdjust="spacing" textLength="75" x="312" y="315.6045">&#22686;&#24378;&#26426;&#21046;&#23618;</text></g><g id="cluster_Framework"><rect fill="#F5F5F5" height="97" rx="2.5" ry="2.5" style="stroke:#333333;stroke-width:1.0;" width="144" x="294" y="179.6094"/><text fill="#000000" font-family="Verdana" font-size="14" font-weight="bold" lengthAdjust="spacing" textLength="75" x="328.5" y="194.6045">&#26694;&#26550;&#23454;&#29616;&#23618;</text></g><g id="elem_TF"><rect fill="#FFFFFF" height="46.2969" rx="2.5" ry="2.5" style="stroke:#000000;stroke-width:1.0;" width="132" x="89" y="93.6094"/><rect fill="#FFFFFF" height="10" style="stroke:#000000;stroke-width:1.0;" width="15" x="201" y="98.6094"/><rect fill="#FFFFFF" height="2" style="stroke:#000000;stroke-width:1.0;" width="4" x="199" y="100.6094"/><rect fill="#FFFFFF" height="2" style="stroke:#000000;stroke-width:1.0;" width="4" x="199" y="104.6094"/><text fill="#000000" font-family="Verdana" font-size="14" lengthAdjust="spacing" textLength="92" x="104" y="126.6045">Transformers</text></g><g id="elem_LLM"><rect fill="#FFFFFF" height="46.2969" rx="2.5" ry="2.5" style="stroke:#000000;stroke-width:1.0;" width="66" x="186" y="214.6094"/><rect fill="#FFFFFF" height="10" style="stroke:#000000;stroke-width:1.0;" width="15" x="232" y="219.6094"/><rect fill="#FFFFFF" height="2" style="stroke:#000000;stroke-width:1.0;" width="4" x="230" y="221.6094"/><rect fill="#FFFFFF" height="2" style="stroke:#000000;stroke-width:1.0;" width="4" x="230" y="225.6094"/><text fill="#000000" font-family="Verdana" font-size="14" lengthAdjust="spacing" textLength="26" x="201" y="247.6045">LLM</text></g><g id="elem_RAG"><rect fill="#FFFFFF" height="46.2969" rx="2.5" ry="2.5" style="stroke:#000000;stroke-width:1.0;" width="70" x="465" y="335.6094"/><rect fill="#FFFFFF" height="10" style="stroke:#000000;stroke-width:1.0;" width="15" x="515" y="340.6094"/><rect fill="#FFFFFF" height="2" style="stroke:#000000;stroke-width:1.0;" width="4" x="513" y="342.6094"/><rect fill="#FFFFFF" height="2" style="stroke:#000000;stroke-width:1.0;" width="4" x="513" y="346.6094"/><text fill="#000000" font-family="Verdana" font-size="14" lengthAdjust="spacing" textLength="30" x="480" y="368.6045">RAG</text></g><g id="elem_FC"><rect fill="#FFFFFF" height="46.2969" rx="2.5" ry="2.5" style="stroke:#000000;stroke-width:1.0;" width="149" x="280.5" y="335.6094"/><rect fill="#FFFFFF" height="10" style="stroke:#000000;stroke-width:1.0;" width="15" x="409.5" y="340.6094"/><rect fill="#FFFFFF" height="2" style="stroke:#000000;stroke-width:1.0;" width="4" x="407.5" y="342.6094"/><rect fill="#FFFFFF" height="2" style="stroke:#000000;stroke-width:1.0;" width="4" x="407.5" y="346.6094"/><text fill="#000000" font-family="Verdana" font-size="14" lengthAdjust="spacing" textLength="109" x="295.5" y="368.6045">Function Calling</text></g><g id="elem_Agent"><rect fill="#FFFFFF" height="46.2969" rx="2.5" ry="2.5" style="stroke:#000000;stroke-width:1.0;" width="81" x="164.5" y="335.6094"/><rect fill="#FFFFFF" height="10" style="stroke:#000000;stroke-width:1.0;" width="15" x="225.5" y="340.6094"/><rect fill="#FFFFFF" height="2" style="stroke:#000000;stroke-width:1.0;" width="4" x="223.5" y="342.6094"/><rect fill="#FFFFFF" height="2" style="stroke:#000000;stroke-width:1.0;" width="4" x="223.5" y="346.6094"/><text fill="#000000" font-family="Verdana" font-size="14" lengthAdjust="spacing" textLength="41" x="179.5" y="368.6045">Agent</text></g><g id="elem_ReAct"><rect fill="#FFFFFF" height="46.2969" rx="2.5" ry="2.5" style="stroke:#000000;stroke-width:1.0;" width="81" x="164.5" y="441.6094"/><rect fill="#FFFFFF" height="10" style="stroke:#000000;stroke-width:1.0;" width="15" x="225.5" y="446.6094"/><rect fill="#FFFFFF" height="2" style="stroke:#000000;stroke-width:1.0;" width="4" x="223.5" y="448.6094"/><rect fill="#FFFFFF" height="2" style="stroke:#000000;stroke-width:1.0;" width="4" x="223.5" y="452.6094"/><text fill="#000000" font-family="Verdana" font-size="14" lengthAdjust="spacing" textLength="41" x="179.5" y="474.6045">ReAct</text></g><g id="elem_LC"><rect fill="#FFFFFF" height="46.2969" rx="2.5" ry="2.5" style="stroke:#000000;stroke-width:1.0;" width="112" x="310" y="214.6094"/><rect fill="#FFFFFF" height="10" style="stroke:#000000;stroke-width:1.0;" width="15" x="402" y="219.6094"/><rect fill="#FFFFFF" height="2" style="stroke:#000000;stroke-width:1.0;" width="4" x="400" y="221.6094"/><rect fill="#FFFFFF" height="2" style="stroke:#000000;stroke-width:1.0;" width="4" x="400" y="225.6094"/><text fill="#000000" font-family="Verdana" font-size="14" lengthAdjust="spacing" textLength="72" x="325" y="247.6045">LangChain</text></g><g id="elem_GMN4"><path d="M31.5,217.6094 L31.5,257.875 A0,0 0 0 0 31.5,257.875 L150.5,257.875 A0,0 0 0 0 150.5,257.875 L150.5,227.6094 L140.5,217.6094 L123.75,217.6094 L119.75,139.6534 L115.75,217.6094 L31.5,217.6094 A0,0 0 0 0 31.5,217.6094 " fill="#FFF9C4" style="stroke:#F9A825;stroke-width:1.0;"/><path d="M140.5,217.6094 L140.5,227.6094 L150.5,227.6094 L140.5,217.6094 " fill="#FFF9C4" style="stroke:#F9A825;stroke-width:1.0;"/><text fill="#333333" font-family="Verdana" font-size="13" lengthAdjust="spacing" textLength="78" x="37.5" y="234.6763">&#33258;&#27880;&#24847;&#21147;&#26550;&#26500;</text><text fill="#333333" font-family="Verdana" font-size="13" lengthAdjust="spacing" textLength="98" x="37.5" y="249.8091">&#29616;&#20195; LLM &#30340;&#22522;&#30784;</text></g><g id="elem_GMN9"><path d="M11,338.6094 L11,378.875 L129,378.875 L129,348.6094 L119,338.6094 L11,338.6094 " fill="#FFF9C4" style="stroke:#F9A825;stroke-width:1.0;"/><path d="M119,338.6094 L119,348.6094 L129,348.6094 L119,338.6094 " fill="#FFF9C4" style="stroke:#F9A825;stroke-width:1.0;"/><text fill="#333333" font-family="Verdana" font-size="13" lengthAdjust="spacing" textLength="78" x="17" y="355.6763">&#25991;&#26412;&#32493;&#32451;&#27169;&#22411;</text><text fill="#333333" font-family="Verdana" font-size="13" lengthAdjust="spacing" textLength="97" x="17" y="370.8091">&#25351;&#20196;&#24494;&#35843; &#8594; &#21161;&#25163;</text></g><g id="elem_GMN17"><path d="M943.5,444.6094 L943.5,484.875 L1042.5,484.875 L1042.5,454.6094 L1032.5,444.6094 L943.5,444.6094 " fill="#FFF9C4" style="stroke:#F9A825;stroke-width:1.0;"/><path d="M1032.5,444.6094 L1032.5,454.6094 L1042.5,454.6094 L1032.5,444.6094 " fill="#FFF9C4" style="stroke:#F9A825;stroke-width:1.0;"/><text fill="#333333" font-family="Verdana" font-size="13" lengthAdjust="spacing" textLength="71" x="949.5" y="461.6763">&#26816;&#32034; + &#29983;&#25104;</text><text fill="#333333" font-family="Verdana" font-size="13" lengthAdjust="spacing" textLength="78" x="949.5" y="476.8091">&#25552;&#20379;&#22806;&#37096;&#30693;&#35782;</text></g><g id="elem_GMN20"><path d="M783.5,444.6094 L783.5,484.875 L908.5,484.875 L908.5,454.6094 L898.5,444.6094 L783.5,444.6094 " fill="#FFF9C4" style="stroke:#F9A825;stroke-width:1.0;"/><path d="M898.5,444.6094 L898.5,454.6094 L908.5,454.6094 L898.5,444.6094 " fill="#FFF9C4" style="stroke:#F9A825;stroke-width:1.0;"/><text fill="#333333" font-family="Verdana" font-size="13" lengthAdjust="spacing" textLength="101" x="789.5" y="461.6763">&#36755;&#20986;&#32467;&#26500;&#21270; JSON</text><text fill="#333333" font-family="Verdana" font-size="13" lengthAdjust="spacing" textLength="104" x="789.5" y="476.8091">&#34920;&#36798;&#20989;&#25968;&#35843;&#29992;&#24847;&#22270;</text></g><g id="elem_GMN23"><path d="M567.5,444.6094 L567.5,484.875 L748.5,484.875 L748.5,454.6094 L738.5,444.6094 L567.5,444.6094 " fill="#FFF9C4" style="stroke:#F9A825;stroke-width:1.0;"/><path d="M738.5,444.6094 L738.5,454.6094 L748.5,454.6094 L738.5,444.6094 " fill="#FFF9C4" style="stroke:#F9A825;stroke-width:1.0;"/><text fill="#333333" font-family="Verdana" font-size="13" lengthAdjust="spacing" textLength="160" x="573.5" y="461.6763">LLM + &#35760;&#24518; + &#24037;&#20855; + &#34892;&#21160;</text><text fill="#333333" font-family="Verdana" font-size="13" lengthAdjust="spacing" textLength="79" x="573.5" y="476.8091">&#35753;&#27169;&#22411;&#8220;&#20570;&#20107;&#8221;</text></g><g id="elem_GMN26"><path d="M91,547.6094 L91,587.875 A0,0 0 0 0 91,587.875 L319,587.875 A0,0 0 0 0 319,587.875 L319,557.6094 L309,547.6094 L209,547.6094 L205,487.7246 L201,547.6094 L91,547.6094 A0,0 0 0 0 91,547.6094 " fill="#FFF9C4" style="stroke:#F9A825;stroke-width:1.0;"/><path d="M309,547.6094 L309,557.6094 L319,557.6094 L309,547.6094 " fill="#FFF9C4" style="stroke:#F9A825;stroke-width:1.0;"/><text fill="#333333" font-family="Verdana" font-size="13" lengthAdjust="spacing" textLength="207" x="97" y="564.6763">Thought &#8594; Action &#8594; Observation</text><text fill="#333333" font-family="Verdana" font-size="13" lengthAdjust="spacing" textLength="120" x="97" y="579.8091">Agent &#20856;&#22411;&#24037;&#20316;&#27169;&#24335;</text></g><g id="elem_GMN31"><path d="M570,338.6094 L570,378.875 L720,378.875 L720,348.6094 L710,338.6094 L570,338.6094 " fill="#FFF9C4" style="stroke:#F9A825;stroke-width:1.0;"/><path d="M710,338.6094 L710,348.6094 L720,348.6094 L710,338.6094 " fill="#FFF9C4" style="stroke:#F9A825;stroke-width:1.0;"/><text fill="#333333" font-family="Verdana" font-size="13" lengthAdjust="spacing" textLength="74" x="576" y="355.6763">Python &#29983;&#24577;</text><text fill="#333333" font-family="Verdana" font-size="13" lengthAdjust="spacing" textLength="129" x="576" y="370.8091">Agent/Tool/RAG &#25277;&#35937;</text></g><g id="link_LLM_GMN9"><path d="M185.73,237.6094 C171.239,237.6094 157.5,237.6094 157.5,237.6094 C157.5,237.6094 157.5,358.6094 157.5,358.6094 C157.5,358.6094 144.938,358.6094 129.333,358.6094 " fill="none" id="LLM-GMN9" style="stroke:#000000;stroke-width:1.0;stroke-dasharray:7.0,7.0;"/></g><g id="link_RAG_GMN17"><path d="M500,381.6204 C500,391.8434 500,401.6094 500,401.6094 C500,401.6094 993,401.6094 993,401.6094 C993,401.6094 993,425.9124 993,444.3294 " fill="none" id="RAG-GMN17" style="stroke:#000000;stroke-width:1.0;stroke-dasharray:7.0,7.0;"/></g><g id="link_FC_GMN20"><path d="M374.25,381.7104 C374.25,399.6904 374.25,421.6094 374.25,421.6094 C374.25,421.6094 846,421.6094 846,421.6094 C846,421.6094 846,433.2154 846,444.3684 " fill="none" id="FC-GMN20" style="stroke:#000000;stroke-width:1.0;stroke-dasharray:7.0,7.0;"/></g><g id="link_Agent_GMN23"><path d="M245.762,366.6094 C254.671,366.6094 261.5,366.6094 261.5,366.6094 C261.5,366.6094 261.5,464.6094 261.5,464.6094 C261.5,464.6094 449.975,464.6094 567.035,464.6094 " fill="none" id="Agent-GMN23" style="stroke:#000000;stroke-width:1.0;stroke-dasharray:7.0,7.0;"/></g><g id="link_LC_GMN31"><path d="M422.124,230.6094 C503.597,230.6094 645,230.6094 645,230.6094 C645,230.6094 645,302.2344 645,338.3274 " fill="none" id="LC-GMN31" style="stroke:#000000;stroke-width:1.0;stroke-dasharray:7.0,7.0;"/></g><g id="link_TF_LLM"><path d="M203.5,139.6534 C203.5,161.0464 203.5,186.7414 203.5,208.2394 " fill="none" id="TF-to-LLM" style="stroke:#666666;stroke-width:1.0;stroke-dasharray:7.0,7.0;"/><polygon fill="#666666" points="203.5,214.2394,207.5,205.2394,203.5,209.2394,199.5,205.2394,203.5,214.2394" style="stroke:#666666;stroke-width:1.0;"/><text fill="#000000" font-family="Verdana" font-size="13" lengthAdjust="spacing" textLength="52" x="150.5" y="173.0133">&#25216;&#26415;&#22522;&#30784;</text></g><g id="link_LLM_RAG"><path d="M225.667,260.6704 C225.667,277.9454 225.667,298.6094 225.667,298.6094 C225.667,298.6094 488.333,298.6094 488.333,298.6094 C488.333,298.6094 488.333,312.6634 488.333,329.5834 " fill="none" id="LLM-to-RAG" style="stroke:#2196F3;stroke-width:1.0;"/><polygon fill="#2196F3" points="488.333,335.5834,492.333,326.5834,488.333,330.5834,484.333,326.5834,488.333,335.5834" style="stroke:#2196F3;stroke-width:1.0;"/><text fill="#000000" font-family="Verdana" font-size="13" lengthAdjust="spacing" textLength="26" x="329.518" y="294.6763">&#25193;&#23637;</text></g><g id="link_LLM_FC"><path d="M252.223,245.6094 C272.77,245.6094 295.25,245.6094 295.25,245.6094 C295.25,245.6094 295.25,296.4094 295.25,329.4694 " fill="none" id="LLM-to-FC" style="stroke:#2196F3;stroke-width:1.0;"/><polygon fill="#2196F3" points="295.25,335.4694,299.25,326.4694,295.25,330.4694,291.25,326.4694,295.25,335.4694" style="stroke:#2196F3;stroke-width:1.0;"/><text fill="#000000" font-family="Verdana" font-size="13" lengthAdjust="spacing" textLength="52" x="242.25" y="282.0923">&#25552;&#20379;&#26426;&#21046;</text></g><g id="link_LLM_Agent"><path d="M205.833,260.6534 C205.833,282.0464 205.833,307.7414 205.833,329.2394 " fill="none" id="LLM-to-Agent" style="stroke:#4CAF50;stroke-width:1.0;"/><polygon fill="#4CAF50" points="205.833,335.2394,209.833,326.2394,205.833,330.2394,201.833,326.2394,205.833,335.2394" style="stroke:#4CAF50;stroke-width:1.0;"/><text fill="#000000" font-family="Verdana" font-size="13" lengthAdjust="spacing" textLength="26" x="178.833" y="294.0133">&#26500;&#24314;</text></g><g id="link_Agent_ReAct"><path d="M205,381.6094 C205,399.2674 205,417.5504 205,435.2874 " fill="none" id="Agent-to-ReAct" style="stroke:#4CAF50;stroke-width:1.0;"/><polygon fill="#4CAF50" points="205,441.2874,209,432.2874,205,436.2874,201,432.2874,205,441.2874" style="stroke:#4CAF50;stroke-width:1.0;"/><text fill="#000000" font-family="Verdana" font-size="13" lengthAdjust="spacing" textLength="52" x="152" y="407.5153">&#20856;&#22411;&#27169;&#24335;</text></g><g id="link_LC_Agent"><path d="M309.914,230.6094 C289.346,230.6094 271,230.6094 271,230.6094 C271,230.6094 271,351.6094 271,351.6094 C271,351.6094 265.253,351.6094 251.671,351.6094 " fill="none" id="LC-to-Agent" style="stroke:#FF9800;stroke-width:1.0;stroke-dasharray:1.0,3.0;"/><polygon fill="#FF9800" points="245.671,351.6094,254.671,355.6094,250.671,351.6094,254.671,347.6094,245.671,351.6094" style="stroke:#FF9800;stroke-width:1.0;"/><text fill="#000000" font-family="Verdana" font-size="13" lengthAdjust="spacing" textLength="26" x="272" y="297.3833">&#23454;&#29616;</text></g><g id="link_LC_RAG"><path d="M422.319,245.6094 C463.309,245.6094 511.667,245.6094 511.667,245.6094 C511.667,245.6094 511.667,296.4094 511.667,329.4694 " fill="none" id="LC-to-RAG" style="stroke:#FF9800;stroke-width:1.0;stroke-dasharray:1.0,3.0;"/><polygon fill="#FF9800" points="511.667,335.4694,515.667,326.4694,511.667,330.4694,507.667,326.4694,511.667,335.4694" style="stroke:#FF9800;stroke-width:1.0;"/><text fill="#000000" font-family="Verdana" font-size="13" lengthAdjust="spacing" textLength="26" x="484.667" y="241.9323">&#23454;&#29616;</text></g><g id="link_LC_FC"><path d="M366,260.6534 C366,282.0464 366,307.7414 366,329.2394 " fill="none" id="LC-to-FC" style="stroke:#FF9800;stroke-width:1.0;stroke-dasharray:1.0,3.0;"/><polygon fill="#FF9800" points="366,335.2394,370,326.2394,366,330.2394,362,326.2394,366,335.2394" style="stroke:#FF9800;stroke-width:1.0;"/><text fill="#000000" font-family="Verdana" font-size="13" lengthAdjust="spacing" textLength="26" x="367" y="294.0133">&#23454;&#29616;</text></g></g></svg>