<?xml version="1.0" encoding="us-ascii" standalone="no"?><svg xmlns="http://www.w3.org/2000/svg" xmlns:xlink="http://www.w3.org/1999/xlink" contentStyleType="text/css" height="445px" preserveAspectRatio="none" style="width:407px;height:445px;background:#FFFFFF;" version="1.1" viewBox="0 0 407 445" width="407px" zoomAndPan="magnify"><defs/><g><text fill="#000000" font-family="Verdana" font-size="22" font-weight="bold" lengthAdjust="spacing" textLength="289" x="57.5" y="35.4209">MockLLMClient &#20351;&#29992;&#22330;&#26223;</text><rect fill="#FFFFFF" height="20.9531" style="stroke:#FFFFFF;stroke-width:1.0;" width="384" x="10" y="54.3545"/><rect fill="#FFFFFF" height="33.9688" rx="12.5" ry="12.5" style="stroke:#000000;stroke-width:1.0;" width="137" x="36" y="80.3076"/><text fill="#000000" font-family="Verdana" font-size="12" lengthAdjust="spacing" textLength="117" x="46" y="101.4463">&#21019;&#24314; MockLLMClient</text><rect fill="#FFFFFF" height="33.9688" rx="12.5" ry="12.5" style="stroke:#000000;stroke-width:1.0;" width="177" x="16" y="134.2764"/><text fill="#000000" font-family="Verdana" font-size="12" lengthAdjust="spacing" textLength="157" x="26" y="155.415">PushResponse &#39044;&#23450;&#20041;&#21709;&#24212;</text><rect fill="#FFFFFF" height="33.9688" rx="12.5" ry="12.5" style="stroke:#000000;stroke-width:1.0;" width="113" x="48" y="296.1826"/><text fill="#000000" font-family="Verdana" font-size="12" lengthAdjust="spacing" textLength="93" x="58" y="317.3213">&#39564;&#35777; Agent &#34892;&#20026;</text><rect fill="#FFFFFF" height="33.9688" rx="12.5" ry="12.5" style="stroke:#000000;stroke-width:1.0;" width="136" x="36.5" y="350.1514"/><text fill="#000000" font-family="Verdana" font-size="12" lengthAdjust="spacing" textLength="116" x="46.5" y="371.29">&#26816;&#26597; last_request()</text><rect fill="#FFFFFF" height="33.9688" rx="12.5" ry="12.5" style="stroke:#000000;stroke-width:1.0;" width="140" x="34.5" y="404.1201"/><text fill="#000000" font-family="Verdana" font-size="12" lengthAdjust="spacing" textLength="120" x="44.5" y="425.2588">&#26816;&#26597; messages &#29366;&#24577;</text><line style="stroke:#000000;stroke-width:1.0;" x1="10" x2="10" y1="54.3545" y2="438.0889"/><rect fill="#FFFFFF" height="33.9688" rx="12.5" ry="12.5" style="stroke:#000000;stroke-width:1.0;" width="136" x="227.5" y="188.2451"/><text fill="#000000" font-family="Verdana" font-size="12" lengthAdjust="spacing" textLength="116" x="237.5" y="209.3838">&#35843;&#29992; Chat(request)</text><rect fill="#FFFFFF" height="33.9688" rx="12.5" ry="12.5" style="stroke:#000000;stroke-width:1.0;" width="185" x="203" y="242.2139"/><text fill="#000000" font-family="Verdana" font-size="12" lengthAdjust="spacing" textLength="165" x="213" y="263.3525">MockLLMClient &#36820;&#22238;&#39044;&#35774;&#21709;&#24212;</text><line style="stroke:#000000;stroke-width:1.0;" x1="197" x2="197" y1="54.3545" y2="438.0889"/><line style="stroke:#000000;stroke-width:1.0;" x1="392" x2="392" y1="54.3545" y2="438.0889"/><line style="stroke:#000000;stroke-width:1.0;" x1="104.5" x2="104.5" y1="114.2764" y2="134.2764"/><polygon fill="#000000" points="100.5,124.2764,104.5,134.2764,108.5,124.2764,104.5,128.2764" style="stroke:#000000;stroke-width:1.0;"/><line style="stroke:#000000;stroke-width:1.0;" x1="104.5" x2="104.5" y1="330.1514" y2="350.1514"/><polygon fill="#000000" points="100.5,340.1514,104.5,350.1514,108.5,340.1514,104.5,344.1514" style="stroke:#000000;stroke-width:1.0;"/><line style="stroke:#000000;stroke-width:1.0;" x1="104.5" x2="104.5" y1="384.1201" y2="404.1201"/><polygon fill="#000000" points="100.5,394.1201,104.5,404.1201,108.5,394.1201,104.5,398.1201" style="stroke:#000000;stroke-width:1.0;"/><line style="stroke:#000000;stroke-width:1.0;" x1="295.5" x2="295.5" y1="222.2139" y2="242.2139"/><polygon fill="#000000" points="291.5,232.2139,295.5,242.2139,299.5,232.2139,295.5,236.2139" style="stroke:#000000;stroke-width:1.0;"/><line style="stroke:#000000;stroke-width:1.0;" x1="104.5" x2="104.5" y1="168.2451" y2="173.2451"/><line style="stroke:#000000;stroke-width:1.0;" x1="104.5" x2="295.5" y1="173.2451" y2="173.2451"/><line style="stroke:#000000;stroke-width:1.0;" x1="295.5" x2="295.5" y1="173.2451" y2="188.2451"/><polygon fill="#000000" points="291.5,178.2451,295.5,188.2451,299.5,178.2451,295.5,182.2451" style="stroke:#000000;stroke-width:1.0;"/><line style="stroke:#000000;stroke-width:1.0;" x1="295.5" x2="295.5" y1="276.1826" y2="281.1826"/><line style="stroke:#000000;stroke-width:1.0;" x1="295.5" x2="104.5" y1="281.1826" y2="281.1826"/><line style="stroke:#000000;stroke-width:1.0;" x1="104.5" x2="104.5" y1="281.1826" y2="296.1826"/><polygon fill="#000000" points="100.5,286.1826,104.5,296.1826,108.5,286.1826,104.5,290.1826" style="stroke:#000000;stroke-width:1.0;"/><text fill="#000000" font-family="Verdana" font-size="18" lengthAdjust="spacing" textLength="72" x="67.5" y="71.0625">&#27979;&#35797;&#20195;&#30721;</text><text fill="#000000" font-family="Verdana" font-size="18" lengthAdjust="spacing" textLength="52" x="268.5" y="71.0625">Agent</text></g></svg>