<?xml version="1.0" encoding="us-ascii" standalone="no"?><svg xmlns="http://www.w3.org/2000/svg" xmlns:xlink="http://www.w3.org/1999/xlink" contentStyleType="text/css" height="281px" preserveAspectRatio="none" style="width:587px;height:281px;background:#FFFFFF;" version="1.1" viewBox="0 0 587 281" width="587px" zoomAndPan="magnify"><defs/><g><text fill="#000000" font-family="Verdana" font-size="22" font-weight="bold" lengthAdjust="spacing" textLength="110" x="239.5" y="37.1182">&#22810;&#32447;&#31243;&#22330;&#26223;</text><line style="stroke:#000000;stroke-width:1.0;" x1="51" x2="51" y1="84.752" y2="245.7485"/><line style="stroke:#000000;stroke-width:1.0;" x1="151" x2="151" y1="84.752" y2="245.7485"/><line style="stroke:#000000;stroke-width:1.0;" x1="260" x2="260" y1="84.752" y2="245.7485"/><line style="stroke:#000000;stroke-width:1.0;" x1="360.5" x2="360.5" y1="84.752" y2="245.7485"/><rect fill="#FFFFFF" height="31.0146" rx="2.5" ry="2.5" style="stroke:#000000;stroke-width:1.0;" width="62" x="20" y="52.7373"/><text fill="#000000" font-family="Verdana" font-size="14" lengthAdjust="spacing" textLength="48" x="27" y="73.8125">UI &#32447;&#31243;</text><rect fill="#FFFFFF" height="31.0146" rx="2.5" ry="2.5" style="stroke:#000000;stroke-width:1.0;" width="62" x="20" y="244.7485"/><text fill="#000000" font-family="Verdana" font-size="14" lengthAdjust="spacing" textLength="48" x="27" y="265.8237">UI &#32447;&#31243;</text><rect fill="#FFFFFF" height="31.0146" rx="2.5" ry="2.5" style="stroke:#000000;stroke-width:1.0;" width="79" x="112" y="52.7373"/><text fill="#000000" font-family="Verdana" font-size="14" lengthAdjust="spacing" textLength="65" x="119" y="73.8125">&#24037;&#20316;&#32447;&#31243;1</text><rect fill="#FFFFFF" height="31.0146" rx="2.5" ry="2.5" style="stroke:#000000;stroke-width:1.0;" width="79" x="112" y="244.7485"/><text fill="#000000" font-family="Verdana" font-size="14" lengthAdjust="spacing" textLength="65" x="119" y="265.8237">&#24037;&#20316;&#32447;&#31243;1</text><rect fill="#FFFFFF" height="31.0146" rx="2.5" ry="2.5" style="stroke:#000000;stroke-width:1.0;" width="79" x="221" y="52.7373"/><text fill="#000000" font-family="Verdana" font-size="14" lengthAdjust="spacing" textLength="65" x="228" y="73.8125">&#24037;&#20316;&#32447;&#31243;2</text><rect fill="#FFFFFF" height="31.0146" rx="2.5" ry="2.5" style="stroke:#000000;stroke-width:1.0;" width="79" x="221" y="244.7485"/><text fill="#000000" font-family="Verdana" font-size="14" lengthAdjust="spacing" textLength="65" x="228" y="265.8237">&#24037;&#20316;&#32447;&#31243;2</text><rect fill="#FFFFFF" height="31.0146" rx="2.5" ry="2.5" style="stroke:#000000;stroke-width:1.0;" width="56" x="332.5" y="52.7373"/><text fill="#000000" font-family="Verdana" font-size="14" lengthAdjust="spacing" textLength="42" x="339.5" y="73.8125">Agent</text><rect fill="#FFFFFF" height="31.0146" rx="2.5" ry="2.5" style="stroke:#000000;stroke-width:1.0;" width="56" x="332.5" y="244.7485"/><text fill="#000000" font-family="Verdana" font-size="14" lengthAdjust="spacing" textLength="42" x="339.5" y="265.8237">Agent</text><polygon fill="#000000" points="348.5,112.5513,358.5,116.5513,348.5,120.5513,352.5,116.5513" style="stroke:#000000;stroke-width:1.0;"/><line style="stroke:#000000;stroke-width:1.0;" x1="51" x2="354.5" y1="116.5513" y2="116.5513"/><text fill="#000000" font-family="Verdana" font-size="13" lengthAdjust="spacing" textLength="138" x="58" y="111.8218">RunAsync("&#35843;&#25972;&#26333;&#20809;")</text><polygon fill="#000000" points="348.5,142.3506,358.5,146.3506,348.5,150.3506,352.5,146.3506" style="stroke:#000000;stroke-width:1.0;"/><line style="stroke:#000000;stroke-width:1.0;" x1="151.5" x2="354.5" y1="146.3506" y2="146.3506"/><text fill="#000000" font-family="Verdana" font-size="13" lengthAdjust="spacing" textLength="98" x="158.5" y="141.6211">Run("&#26597;&#35810;&#29366;&#24577;")</text><polygon fill="#000000" points="348.5,172.1499,358.5,176.1499,348.5,180.1499,352.5,176.1499" style="stroke:#000000;stroke-width:1.0;"/><line style="stroke:#000000;stroke-width:1.0;" x1="260.5" x2="354.5" y1="176.1499" y2="176.1499"/><text fill="#000000" font-family="Verdana" font-size="13" lengthAdjust="spacing" textLength="76" x="267.5" y="171.4204">transcript()</text><path d="M365,189.1499 L365,230.1499 L580,230.1499 L580,199.1499 L570,189.1499 L365,189.1499 " fill="#FFFFFF" style="stroke:#000000;stroke-width:1.0;"/><path d="M570,189.1499 L570,199.1499 L580,199.1499 L570,189.1499 " fill="#FFFFFF" style="stroke:#000000;stroke-width:1.0;"/><text fill="#000000" font-family="Verdana" font-size="13" lengthAdjust="spacing" textLength="194" x="371" y="207.2197">messages_ &#34987;&#22810;&#20010;&#32447;&#31243;&#21516;&#26102;&#35775;&#38382;</text><text fill="#000000" font-family="Verdana" font-size="13" lengthAdjust="spacing" textLength="52" x="371" y="223.019">&#38656;&#35201;&#20445;&#25252;</text><!--SRC=[Kop9ICrDLIZ8ISpCuoh9BCb9LNYwPDRpNVkVh-X-EcVNivdhkRWA4ejACfCp2nBpIXIKGZqL8B9A2ed52g6UgB9FjozzidSEH84XM4Mu8MuLHX0LHgWg7DDJyqh0CevSN43hTEqK71Mi589AynoBA_EIDPHUR6X-DdNBizbpdxPsAcboXHiYAT5GUZP_wOlrYvvtRNlMq0YIDOB9bXGbvXKd5sKMb6XeSkNbbwGg56McPvGevAS1BL9Go4qjBavCJosELtYnQ3Km39xiM0KDXWazpwPlUx5k_ylfwu3gNivfUB6iySd-kS-wbd2bvgKeW8m20000]--></g></svg>